<?xml version="1.0" standalone="no"?>
<!DOCTYPE svg PUBLIC "-//W3C//DTD SVG 1.1//EN"
  "http://www.w3.org/Graphics/SVG/1.1/DTD/svg11.dtd">
<svg width="531.49px" height="531.49px" version="1.1"
    xmlns="http://www.w3.org/2000/svg"
    xmlns:xlink="http://www.w3.org/1999/xlink">
<desc>Veusz output document</desc>
<defs>
<clipPath id="c0">
<path d="m0,0l531.49,0l0,531.49l-531.49,0l0,-531.49"/>
</clipPath>
<clipPath id="c1">
<path d="m60.23,7.08l464.17,0l0,464.17l-464.17,0l0,-464.17"/>
</clipPath>
</defs>
<g stroke-linejoin="bevel" stroke-linecap="square" stroke="#000000" fill-rule="evenodd">
<g clip-path="url(#c0)">
<g fill="#ffffff" stroke-width="0.62">
<path d="m60.23,7.08l464.17,0l0,464.17l-464.17,0l0,-464.17"/>
</g>
<g fill="#ffffff" stroke="none" stroke-width="0.1">
<path d="m271.79,391.25l232.6,0l0,60l-232.6,0l0,-60" id="p0"/>
</g>
<g fill="none" stroke-width="0.62">
<use xlink:href="#p0"/>
</g>
<g fill="none" stroke="#ff0000" stroke-width="0.62">
<path d="M291.79,411.25l35.43,0"/>
</g>
<g fill="none" stroke-width="0.1">
<path d="m348.28,416.07c0.77,0.71,2.22,1.05,3.44,1.05c3.09,0,4.32,-1.76,4.32,-3.55c0,-2.06,-1.4,-3.04,-3.44,-3.79l-0.55,-0.2c-1.17,-0.43,-2.15,-1.19,-2.15,-2.24c0,-1.27,0.77,-2.22,2.24,-2.22c1.5,0,2.34,0.85,2.62,2.62l0.54,0l0,-2.46c-0.59,-0.47,-1.78,-0.77,-2.97,-0.77c-2.13,0,-4.02,1.06,-4.02,3.37c0,1.83,1.47,2.8,3.3,3.44l0.31,0.12c0.76,0.29,2.43,1.1,2.43,2.65c0,1.5,-0.96,2.41,-2.51,2.41c-1.64,0,-2.73,-1.27,-3.16,-3.23l-0.55,0l0.17,2.8m16.13,-3.81c0.36,0,0.7,-0.08,0.7,-0.66c0,-1.03,-0.33,-3.51,-3.53,-3.51c-2.72,0,-4.02,1.94,-4.02,4.56c0,2.76,1.18,4.46,4.04,4.42c1.94,-0.01,2.94,-1.08,3.41,-2.46l-0.52,-0.27c-0.49,1.01,-1.15,1.85,-2.53,1.85c-2.17,0,-2.6,-2.1,-2.57,-3.92l5.03,0m-5.02,-0.66c0,-0.71,0.26,-2.9,2.08,-2.9c1.62,0,1.81,1.66,1.81,2.34c0,0.33,-0.1,0.56,-0.59,0.56l-3.3,0m15.55,-0.73c0,-1.76,-0.96,-2.78,-2.57,-2.78c-1.29,0,-2.1,0.62,-3.18,1.32l-0.24,-1.32l-2.6,0.43l0,0.43l0.66,0.08c0.45,0.06,0.55,0.15,0.55,0.78l0,5.51c0,0.89,-0.05,0.92,-1.31,1.01l0,0.5l4.27,0l0,-0.5c-1.24,-0.08,-1.31,-0.12,-1.31,-1.01l0,-4.09c0,-0.43,0.03,-0.68,0.17,-0.96c0.36,-0.68,1.15,-1.26,2.08,-1.26c1.19,0,1.83,0.66,1.83,2.18l0,4.13c0,0.89,-0.05,0.92,-1.31,1.01l0,0.5l4.27,0l0,-0.5c-1.24,-0.08,-1.31,-0.12,-1.31,-1.01l0,-4.48m11.77,6l0,-0.5c-1.24,-0.08,-1.31,-0.12,-1.31,-1.02l0,-11.34l-0.12,-0.1l-2.74,0.43l0,0.43l0.66,0.07c0.45,0.05,0.56,0.14,0.56,0.8l0,2.87c-0.49,-0.26,-1.13,-0.41,-1.94,-0.41c-1.43,0,-2.5,0.45,-3.23,1.2c-0.75,0.78,-1.2,1.93,-1.2,3.45c0,2.58,1.34,4.31,3.65,4.31c0.94,0,1.76,-0.41,2.71,-1.18l0,0.87l0.13,0.12l2.83,0m-2.95,-2.98c0,0.38,-0.01,0.68,-0.12,0.97c-0.35,0.9,-1.11,1.25,-2.02,1.25c-1.6,0,-2.41,-1.57,-2.41,-3.57c0,-2.27,0.82,-3.84,2.6,-3.84c0.82,0,1.48,0.38,1.8,1.1c0.14,0.29,0.15,0.54,0.15,1.01l0,3.07m9.04,3.19l0.7,-0.68c0.61,0.35,1.34,0.68,2.65,0.68c2.32,0,4.35,-1.11,4.35,-4.68c0,-1.08,-0.22,-4.3,-3.37,-4.3c-1.32,0,-2.36,0.85,-3,1.24l0,-5.33l-0.12,-0.1l-2.74,0.43l0,0.43l0.66,0.07c0.45,0.05,0.55,0.14,0.55,0.8l0,11.3l0.31,0.13m1.32,-5.82c0,-0.43,0.03,-0.71,0.17,-0.99c0.42,-0.83,1.15,-1.22,2.13,-1.22c0.71,0,2.25,0.42,2.25,3.46c0,2.57,-0.78,3.97,-2.52,3.97c-0.92,0,-1.6,-0.47,-1.92,-1.34c-0.1,-0.31,-0.12,-0.68,-0.12,-1.1l0,-2.76m7.17,-2.95l0,0.5c0.84,0.03,1.01,0.13,1.32,0.9c0.87,2.1,2.32,5.82,2.74,7.03c0.1,0.29,0.13,0.55,0.13,0.85c0,0.4,-0.15,0.92,-0.41,1.48c-0.26,0.57,-0.57,0.73,-0.77,0.73c-0.17,0,-0.33,-0.05,-0.64,-0.36c-0.17,-0.15,-0.31,-0.24,-0.52,-0.24c-0.33,0,-0.76,0.47,-0.76,0.97c0,0.42,0.48,0.9,1.22,0.9c0.69,0,1.58,-0.2,2.47,-2.8c1.08,-3.11,2.68,-7.38,3.23,-8.6c0.31,-0.7,0.41,-0.84,1.29,-0.89l0,-0.5l-3.34,0l0,0.5l0.89,0.08c0.29,0.03,0.32,0.24,0.24,0.59c-0.26,1.05,-1.16,3.69,-1.92,5.79l-0.03,0c-0.8,-2.11,-1.5,-4.02,-2.15,-5.86c-0.1,-0.31,-0.13,-0.5,0.26,-0.54l0.75,-0.07l0,-0.5l-4,0m14.62,0.7l0,-0.7l-2.25,0l0,-2.2l-0.5,0l-1.06,2.2l-1.32,0l0,0.7l1.26,0l0,6.09c0,1.78,1.32,1.99,1.94,1.99c0.89,0,1.73,-0.45,2.23,-0.76l-0.13,-0.36c-0.42,0.17,-0.8,0.22,-1.24,0.22c-0.59,0,-1.15,-0.42,-1.15,-1.75l0,-5.42l2.25,0m8.03,3.27c0.36,0,0.7,-0.08,0.7,-0.66c0,-1.03,-0.33,-3.51,-3.53,-3.51c-2.72,0,-4.02,1.94,-4.02,4.56c0,2.76,1.18,4.46,4.04,4.42c1.94,-0.01,2.94,-1.08,3.41,-2.46l-0.52,-0.27c-0.49,1.01,-1.15,1.85,-2.53,1.85c-2.17,0,-2.6,-2.1,-2.57,-3.92l5.03,0m-5.02,-0.66c0,-0.71,0.26,-2.9,2.08,-2.9c1.62,0,1.81,1.66,1.81,2.34c0,0.33,-0.1,0.56,-0.59,0.56l-3.3,0m12.72,-0.87l0,-2.04c-0.57,-0.41,-1.46,-0.59,-2.25,-0.59c-1.89,0,-3.16,0.89,-3.18,2.55c0.01,1.45,1.19,2.1,2.64,2.53c0.78,0.24,1.89,0.64,1.89,1.83c0,0.89,-0.7,1.45,-1.62,1.45c-1.41,0,-2.2,-1.03,-2.55,-2.51l-0.5,0l0.17,2.29c0.63,0.55,1.69,0.83,2.73,0.83c2.08,0,3.27,-1.1,3.27,-2.58c0,-1.54,-0.94,-2.24,-2.74,-2.8c-0.71,-0.22,-1.87,-0.59,-1.87,-1.57c0.01,-0.91,0.7,-1.41,1.57,-1.41c1.24,0,1.83,0.96,1.96,2.02l0.5,0" fill="#000000" stroke="none" fill-opacity="1"/>
</g>
<g fill="none" stroke="#0000ff" stroke-width="0.62">
<path d="M291.79,431.25l35.43,0"/>
</g>
<g fill="none" stroke-width="0.1">
<path d="m350.54,428.07l-2.66,0.43l0,0.43l0.66,0.08c0.45,0.07,0.55,0.15,0.55,0.78l0,5.52c0,0.89,-0.08,0.92,-1.31,1.01l0,0.5l4.62,0l0,-0.5c-1.55,-0.08,-1.66,-0.12,-1.66,-1.01l0,-4.1c0,-1.35,0.59,-1.8,0.99,-1.8c0.27,0,0.57,0.1,1.08,0.39c0.12,0.07,0.26,0.09,0.35,0.09c0.42,0,0.8,-0.44,0.8,-0.99c0,-0.37,-0.24,-0.84,-0.92,-0.84c-0.63,0,-1.15,0.37,-2.31,1.38l-0.2,-1.38m11.21,4.18c0.36,0,0.7,-0.08,0.7,-0.66c0,-1.03,-0.33,-3.51,-3.53,-3.51c-2.72,0,-4.02,1.94,-4.02,4.56c0,2.76,1.18,4.46,4.04,4.42c1.94,-0.01,2.94,-1.08,3.41,-2.46l-0.52,-0.27c-0.49,1.01,-1.15,1.85,-2.53,1.85c-2.17,0,-2.6,-2.1,-2.57,-3.92l5.03,0m-5.02,-0.66c0,-0.71,0.26,-2.9,2.08,-2.9c1.62,0,1.81,1.66,1.81,2.34c0,0.33,-0.1,0.56,-0.59,0.56l-3.3,0m9.81,-2.6l2.13,0l0,-0.7l-2.13,0l-0.07,-1.96c-0.05,-1.66,0.56,-1.83,0.84,-1.83c0.36,0,0.75,0.17,1.19,1.19c0.08,0.17,0.2,0.29,0.47,0.29c0.35,0,0.85,-0.29,0.85,-0.82c0,-0.57,-0.73,-1.27,-2.13,-1.27c-0.96,0,-1.78,0.43,-2.22,1.1c-0.4,0.61,-0.57,1.54,-0.57,2.69l0,0.61l-1.34,0l0,0.7l1.34,0l0,6.35c0,0.89,-0.05,0.92,-1.31,1.01l0,0.5l4.62,0l0,-0.5c-1.59,-0.07,-1.66,-0.1,-1.66,-0.99l0,-6.37m9.78,3.27c0.36,0,0.7,-0.08,0.7,-0.66c0,-1.03,-0.33,-3.51,-3.53,-3.51c-2.72,0,-4.02,1.94,-4.02,4.56c0,2.76,1.18,4.46,4.04,4.42c1.94,-0.01,2.94,-1.08,3.41,-2.46l-0.52,-0.27c-0.49,1.01,-1.15,1.85,-2.53,1.85c-2.17,0,-2.6,-2.1,-2.57,-3.92l5.03,0m-5.02,-0.66c0,-0.71,0.26,-2.9,2.08,-2.9c1.62,0,1.81,1.66,1.81,2.34c0,0.33,-0.1,0.56,-0.59,0.56l-3.3,0m9.6,-3.51l-2.66,0.43l0,0.43l0.66,0.08c0.45,0.07,0.55,0.15,0.55,0.78l0,5.52c0,0.89,-0.08,0.92,-1.31,1.01l0,0.5l4.62,0l0,-0.5c-1.55,-0.08,-1.66,-0.12,-1.66,-1.01l0,-4.1c0,-1.35,0.59,-1.8,0.99,-1.8c0.27,0,0.57,0.1,1.08,0.39c0.12,0.07,0.26,0.09,0.35,0.09c0.42,0,0.8,-0.44,0.8,-0.99c0,-0.37,-0.24,-0.84,-0.92,-0.84c-0.63,0,-1.15,0.37,-2.31,1.38l-0.2,-1.38m11.21,4.18c0.36,0,0.7,-0.08,0.7,-0.66c0,-1.03,-0.33,-3.51,-3.53,-3.51c-2.72,0,-4.02,1.94,-4.02,4.56c0,2.76,1.18,4.46,4.04,4.42c1.94,-0.01,2.94,-1.08,3.41,-2.46l-0.52,-0.27c-0.49,1.01,-1.15,1.85,-2.53,1.85c-2.17,0,-2.6,-2.1,-2.57,-3.92l5.03,0m-5.02,-0.66c0,-0.71,0.26,-2.9,2.08,-2.9c1.62,0,1.81,1.66,1.81,2.34c0,0.33,-0.1,0.56,-0.59,0.56l-3.3,0m15.55,-0.73c0,-1.76,-0.96,-2.78,-2.57,-2.78c-1.29,0,-2.1,0.62,-3.18,1.32l-0.24,-1.32l-2.6,0.43l0,0.43l0.66,0.08c0.45,0.06,0.55,0.15,0.55,0.78l0,5.51c0,0.89,-0.05,0.92,-1.31,1.01l0,0.5l4.27,0l0,-0.5c-1.24,-0.08,-1.31,-0.12,-1.31,-1.01l0,-4.09c0,-0.43,0.03,-0.68,0.17,-0.96c0.36,-0.68,1.15,-1.26,2.08,-1.26c1.19,0,1.83,0.66,1.83,2.18l0,4.13c0,0.89,-0.05,0.92,-1.31,1.01l0,0.5l4.27,0l0,-0.5c-1.24,-0.08,-1.31,-0.12,-1.31,-1.01l0,-4.48m9.36,-2.57l-6.72,0l0,2.59l0.54,0c0.22,-1.61,0.59,-1.97,2.48,-1.97l1.75,0c-1.8,2.57,-3.64,5.12,-5.51,7.7l0.13,0.26l7.43,0l0.17,-2.67l-0.54,0c-0.27,1.64,-0.87,2.06,-2.81,2.06l-2.25,0c1.76,-2.57,3.6,-5.14,5.46,-7.71l-0.14,-0.24m8.06,0.7l2.13,0l0,-0.7l-2.13,0l-0.07,-1.96c-0.05,-1.66,0.56,-1.83,0.84,-1.83c0.36,0,0.75,0.17,1.19,1.19c0.08,0.17,0.2,0.29,0.47,0.29c0.35,0,0.85,-0.29,0.85,-0.82c0,-0.57,-0.73,-1.27,-2.13,-1.27c-0.96,0,-1.78,0.43,-2.22,1.1c-0.4,0.61,-0.57,1.54,-0.57,2.69l0,0.61l-1.34,0l0,0.7l1.34,0l0,6.35c0,0.89,-0.05,0.92,-1.31,1.01l0,0.5l4.62,0l0,-0.5c-1.59,-0.07,-1.66,-0.1,-1.66,-0.99l0,-6.37m12.4,7.87l0,-0.5c-1.2,-0.08,-1.31,-0.12,-1.31,-1.03l0,-7.14l-0.12,-0.1l-2.74,0.43l0,0.43l0.66,0.08c0.45,0.07,0.55,0.15,0.55,0.78l0,3.92c0,0.48,-0.05,0.87,-0.13,1.04c-0.4,0.8,-1.24,1.3,-2.15,1.3c-1.01,0,-1.76,-0.62,-1.76,-1.99l0,-5.93l-0.12,-0.1l-2.74,0.43l0,0.43l0.66,0.08c0.45,0.07,0.55,0.15,0.55,0.78l0,4.6c0,2.01,1.19,2.62,2.48,2.62c1.48,0,2.69,-1.01,3.2,-1.25l0.17,1.06l2.8,0m9.52,-6c0,-1.76,-0.96,-2.78,-2.57,-2.78c-1.29,0,-2.1,0.62,-3.18,1.32l-0.24,-1.32l-2.6,0.43l0,0.43l0.66,0.08c0.45,0.06,0.55,0.15,0.55,0.78l0,5.51c0,0.89,-0.05,0.92,-1.31,1.01l0,0.5l4.27,0l0,-0.5c-1.24,-0.08,-1.31,-0.12,-1.31,-1.01l0,-4.09c0,-0.43,0.03,-0.68,0.17,-0.96c0.36,-0.68,1.15,-1.26,2.08,-1.26c1.19,0,1.83,0.66,1.83,2.18l0,4.13c0,0.89,-0.05,0.92,-1.31,1.01l0,0.5l4.27,0l0,-0.5c-1.24,-0.08,-1.31,-0.12,-1.31,-1.01l0,-4.48m6.82,5.3c-2.08,0,-2.57,-2.17,-2.57,-3.81c0,-2.6,1.03,-3.65,2.23,-3.65c0.8,0,1.31,0.57,1.66,1.52c0.1,0.27,0.21,0.45,0.54,0.45c0.35,0,1.03,-0.22,1.03,-0.89c0,-0.8,-1.15,-1.69,-3.04,-1.69c-3.18,0,-4.25,2.25,-4.25,4.58c0,2.92,1.43,4.4,4.05,4.4c1.22,0,2.87,-0.64,3.36,-2.51l-0.5,-0.24c-0.54,1.22,-1.24,1.85,-2.52,1.85m9.13,-7.17l0,-0.7l-2.25,0l0,-2.2l-0.5,0l-1.06,2.2l-1.32,0l0,0.7l1.26,0l0,6.09c0,1.78,1.32,1.99,1.94,1.99c0.89,0,1.73,-0.45,2.23,-0.76l-0.13,-0.36c-0.42,0.17,-0.8,0.22,-1.24,0.22c-0.59,0,-1.15,-0.42,-1.15,-1.75l0,-5.42l2.25,0m0.96,-0.47l0,0.43l0.66,0.08c0.45,0.06,0.55,0.15,0.55,0.78l0,5.51c0,0.89,-0.05,0.92,-1.31,1.01l0,0.5l4.27,0l0,-0.5c-1.24,-0.08,-1.31,-0.12,-1.31,-1.01l0,-7.15l-0.12,-0.1l-2.74,0.43m2.03,-4.16c-0.63,0,-1.06,0.45,-1.06,1.08c0,0.61,0.43,1.05,1.06,1.05c0.64,0,1.05,-0.43,1.06,-1.05c0,-0.62,-0.42,-1.08,-1.06,-1.08m7.45,3.72c-2.8,0,-4.18,1.66,-4.18,4.49c0,2.83,1.38,4.49,4.18,4.49c2.83,0,4.2,-1.66,4.2,-4.49c0,-2.83,-1.36,-4.49,-4.2,-4.49m-2.36,4.49c0,-2.41,0.76,-3.88,2.36,-3.88c1.62,0,2.37,1.46,2.37,3.88c0,2.41,-0.75,3.88,-2.37,3.88c-1.59,0,-2.36,-1.46,-2.36,-3.88m16.67,-1.71c0,-1.76,-0.96,-2.78,-2.57,-2.78c-1.29,0,-2.1,0.62,-3.18,1.32l-0.24,-1.32l-2.6,0.43l0,0.43l0.66,0.08c0.45,0.06,0.55,0.15,0.55,0.78l0,5.51c0,0.89,-0.05,0.92,-1.31,1.01l0,0.5l4.27,0l0,-0.5c-1.24,-0.08,-1.31,-0.12,-1.31,-1.01l0,-4.09c0,-0.43,0.03,-0.68,0.17,-0.96c0.36,-0.68,1.15,-1.26,2.08,-1.26c1.19,0,1.83,0.66,1.83,2.18l0,4.13c0,0.89,-0.05,0.92,-1.31,1.01l0,0.5l4.27,0l0,-0.5c-1.24,-0.08,-1.31,-0.12,-1.31,-1.01l0,-4.48" fill="#000000" stroke="none" fill-opacity="1"/>
</g>
</g>
<g clip-path="url(#c1)">
<g fill="none" stroke="#0000ff" stroke-width="0.62">
<polyline fill="none" points="60.23,431.8 69.7,423.92 79.18,416.04 88.65,408.17 98.12,400.29 107.6,392.41 117.07,384.53 126.54,376.65 136.01,368.77 145.49,360.9 154.96,353.02 164.43,345.14 173.91,337.26 183.38,329.38 192.85,321.5 202.33,313.63 211.8,305.75 221.27,297.87 230.74,289.99 240.22,282.11 249.69,274.23 259.16,266.36 268.64,258.48 278.11,250.6 287.58,242.72 297.05,234.84 306.53,226.96 316,219.09 325.47,211.21 334.95,203.33 344.42,195.45 353.89,187.57 363.36,179.69 372.84,171.82 382.31,163.94 391.78,156.06 401.26,148.18 410.73,140.3 420.2,132.42 429.68,124.55 439.15,116.67 448.62,108.79 458.09,100.91 467.57,93.03 477.04,85.15 486.51,77.28 495.99,69.4 505.46,61.52 514.93,53.64 524.4,45.76"/>
</g>
<g fill="none" stroke="#ff0000" stroke-width="0.62">
<polyline fill="none" points="60.23,433.35 69.7,425.47 79.18,417.59 88.65,409.71 98.12,401.83 107.6,393.96 117.07,386.08 126.54,378.2 136.01,370.32 145.49,362.44 154.96,354.56 164.43,346.69 173.91,338.81 183.38,330.93 192.85,323.05 202.33,315.17 211.8,307.29 221.27,299.42 230.74,291.54 240.22,283.66 249.69,275.78 259.16,267.9 268.64,260.02 278.11,252.15 287.58,244.27 297.05,236.39 306.53,228.51 316,220.63 325.47,212.75 334.95,204.88 344.42,197 353.89,189.12 363.36,181.24 372.84,173.36 382.31,165.48 391.78,157.61 401.26,149.73 410.73,141.85 420.2,133.97 429.68,126.09 439.15,118.21 448.62,110.34 458.09,102.46 467.57,94.58 477.04,86.7 486.51,78.82 495.99,70.94 505.46,63.07 514.93,55.19 524.4,47.31"/>
</g>
</g>
<g clip-path="url(#c0)">
<g fill="none" stroke-linecap="butt" stroke-width="0.62">
<path d="M60.23,471.25l0,-464.17"/>
<path d="M60.23,471.25l3.75,0M60.23,432.57l3.75,0M60.23,393.89l3.75,0M60.23,355.21l3.75,0M60.23,316.53l3.75,0M60.23,277.85l3.75,0M60.23,239.17l3.75,0M60.23,200.49l3.75,0M60.23,161.81l3.75,0M60.23,123.12l3.75,0M60.23,84.44l3.75,0M60.23,45.76l3.75,0M60.23,7.08l3.75,0"/>
<path d="M60.23,471.25l7.5,0M60.23,393.89l7.5,0M60.23,316.53l7.5,0M60.23,239.17l7.5,0M60.23,161.81l7.5,0M60.23,84.44l7.5,0M60.23,7.08l7.5,0"/>
</g>
<g fill="none" stroke-width="0.1">
<g transform="matrix(0 -1 1 0 15.6 308.69)">
<path d="m11.37,0l0,-0.5c-1.01,-0.08,-1.2,-0.13,-1.52,-1.05l-3.71,-10.55l-1.29,0l-1.83,5.18c-0.54,1.52,-1.27,3.62,-1.88,5.21c-0.36,0.94,-0.52,1.15,-1.62,1.2l0,0.5l3.85,0l0,-0.5l-0.9,-0.08c-0.52,-0.05,-0.57,-0.22,-0.43,-0.7c0.29,-1.05,0.66,-2.13,1.06,-3.37l3.92,0l1.17,3.34c0.17,0.5,0.08,0.7,-0.47,0.75l-0.78,0.07l0,0.5l4.47,0m-4.6,-5.33l-3.48,0c0.55,-1.75,1.17,-3.46,1.69,-5l0.05,0l1.73,5m9.58,4.63c-2.08,0,-2.57,-2.17,-2.57,-3.81c0,-2.6,1.03,-3.65,2.23,-3.65c0.8,0,1.31,0.57,1.66,1.52c0.1,0.27,0.21,0.45,0.54,0.45c0.35,0,1.03,-0.22,1.03,-0.89c0,-0.8,-1.15,-1.69,-3.04,-1.69c-3.18,0,-4.25,2.25,-4.25,4.58c0,2.92,1.43,4.4,4.05,4.4c1.22,0,2.87,-0.64,3.36,-2.51l-0.5,-0.24c-0.54,1.22,-1.24,1.85,-2.52,1.85m9.13,-7.17l0,-0.7l-2.25,0l0,-2.2l-0.5,0l-1.06,2.2l-1.32,0l0,0.7l1.26,0l0,6.09c0,1.78,1.32,1.99,1.94,1.99c0.89,0,1.73,-0.45,2.23,-0.76l-0.13,-0.36c-0.42,0.17,-0.8,0.22,-1.24,0.22c-0.59,0,-1.15,-0.42,-1.15,-1.75l0,-5.42l2.25,0m10.65,7.87l0,-0.5c-1.2,-0.08,-1.31,-0.12,-1.31,-1.03l0,-7.14l-0.12,-0.1l-2.74,0.43l0,0.43l0.66,0.08c0.45,0.07,0.55,0.15,0.55,0.78l0,3.92c0,0.48,-0.05,0.87,-0.13,1.04c-0.4,0.8,-1.24,1.3,-2.15,1.3c-1.01,0,-1.76,-0.62,-1.76,-1.99l0,-5.93l-0.12,-0.1l-2.74,0.43l0,0.43l0.66,0.08c0.45,0.07,0.55,0.15,0.55,0.78l0,4.6c0,2.01,1.19,2.62,2.48,2.62c1.48,0,2.69,-1.01,3.2,-1.25l0.17,1.06l2.8,0m6.26,-2.5c0,1.41,-1.08,1.78,-1.76,1.78c-1.08,0,-1.6,-0.77,-1.6,-1.8c0,-0.82,0.38,-1.24,1.36,-1.6c0.7,-0.26,1.62,-0.59,2.01,-0.84l0,2.46m1.57,-3.95c0,-1.01,-0.22,-2.32,-2.87,-2.32c-1.97,0,-3.53,1.03,-3.53,1.99c0,0.56,0.64,0.82,0.98,0.82c0.36,0,0.47,-0.19,0.55,-0.49c0.38,-1.29,1.1,-1.71,1.8,-1.71c0.68,0,1.48,0.35,1.48,1.75l0,0.73c-0.43,0.45,-2.13,0.89,-3.51,1.32c-1.25,0.38,-1.62,1.26,-1.62,2.08c0,1.31,0.87,2.48,2.52,2.48c1.08,-0.03,2.04,-0.68,2.6,-1.05c0.24,0.64,0.52,1.05,1.13,1.05c0.64,0,1.4,-0.19,2.06,-0.52l-0.1,-0.41c-0.24,0.05,-0.62,0.08,-0.89,0.01c-0.31,-0.07,-0.61,-0.4,-0.61,-1.5l0,-4.23m4.88,-6.42l-0.12,-0.1l-2.74,0.43l0,0.43l0.66,0.07c0.45,0.05,0.55,0.14,0.55,0.8l0,9.71c0,0.89,-0.05,0.92,-1.31,1.01l0,0.5l4.27,0l0,-0.5c-1.24,-0.08,-1.31,-0.12,-1.31,-1.01l0,-11.35m11.93,6.73l0,-2.04c-0.57,-0.41,-1.46,-0.59,-2.25,-0.59c-1.89,0,-3.16,0.89,-3.18,2.55c0.01,1.45,1.19,2.1,2.64,2.53c0.78,0.24,1.89,0.64,1.89,1.83c0,0.89,-0.7,1.45,-1.62,1.45c-1.41,0,-2.2,-1.03,-2.55,-2.51l-0.5,0l0.17,2.29c0.63,0.55,1.69,0.83,2.73,0.83c2.08,0,3.27,-1.1,3.27,-2.58c0,-1.54,-0.94,-2.24,-2.74,-2.8c-0.71,-0.22,-1.87,-0.59,-1.87,-1.57c0.01,-0.91,0.7,-1.41,1.57,-1.41c1.24,0,1.83,0.96,1.96,2.02l0.5,0m8.92,1.53c0.36,0,0.7,-0.08,0.7,-0.66c0,-1.03,-0.33,-3.51,-3.53,-3.51c-2.72,0,-4.02,1.94,-4.02,4.56c0,2.76,1.18,4.46,4.04,4.42c1.94,-0.01,2.94,-1.08,3.41,-2.46l-0.52,-0.27c-0.49,1.01,-1.15,1.85,-2.53,1.85c-2.17,0,-2.6,-2.1,-2.57,-3.92l5.03,0m-5.02,-0.66c0,-0.71,0.26,-2.9,2.08,-2.9c1.62,0,1.81,1.66,1.81,2.34c0,0.33,-0.1,0.56,-0.59,0.56l-3.3,0m15.55,-0.73c0,-1.76,-0.96,-2.78,-2.57,-2.78c-1.29,0,-2.1,0.62,-3.18,1.32l-0.24,-1.32l-2.6,0.43l0,0.43l0.66,0.08c0.45,0.06,0.55,0.15,0.55,0.78l0,5.51c0,0.89,-0.05,0.92,-1.31,1.01l0,0.5l4.27,0l0,-0.5c-1.24,-0.08,-1.31,-0.12,-1.31,-1.01l0,-4.09c0,-0.43,0.03,-0.68,0.17,-0.96c0.36,-0.68,1.15,-1.26,2.08,-1.26c1.19,0,1.83,0.66,1.83,2.18l0,4.13c0,0.89,-0.05,0.92,-1.31,1.01l0,0.5l4.27,0l0,-0.5c-1.24,-0.08,-1.31,-0.12,-1.31,-1.01l0,-4.48m11.77,6l0,-0.5c-1.24,-0.08,-1.31,-0.12,-1.31,-1.02l0,-11.34l-0.12,-0.1l-2.74,0.43l0,0.43l0.66,0.07c0.45,0.05,0.56,0.14,0.56,0.8l0,2.87c-0.49,-0.26,-1.13,-0.41,-1.94,-0.41c-1.43,0,-2.5,0.45,-3.23,1.2c-0.75,0.78,-1.2,1.93,-1.2,3.45c0,2.58,1.34,4.31,3.65,4.31c0.94,0,1.76,-0.41,2.71,-1.18l0,0.87l0.13,0.12l2.83,0m-2.95,-2.98c0,0.38,-0.01,0.68,-0.12,0.97c-0.35,0.9,-1.11,1.25,-2.02,1.25c-1.6,0,-2.41,-1.57,-2.41,-3.57c0,-2.27,0.82,-3.84,2.6,-3.84c0.82,0,1.48,0.38,1.8,1.1c0.14,0.29,0.15,0.54,0.15,1.01l0,3.07m13.19,2.98c2.65,0,4.37,-0.96,4.37,-3.39c0,-2.06,-1.47,-2.97,-3.16,-3.2l0,-0.03c1.64,-0.33,2.6,-1.34,2.6,-2.69c0,-0.96,-0.38,-1.67,-1.08,-2.15c-0.68,-0.45,-1.73,-0.64,-3.09,-0.63l-5.05,0l0,0.5c1.54,0.1,1.57,0.14,1.57,1.12l0,8.85c0,0.98,-0.03,1.01,-1.57,1.12l0,0.5l5.42,0m-2.11,-6.21l1.25,0c2.17,0,3.36,1.08,3.36,2.94c0,2.1,-1.43,2.65,-2.94,2.65c-1.4,0,-1.67,-0.26,-1.67,-1.34l0,-4.25m0,-4.41c0,-0.75,0.05,-0.85,1.41,-0.87c1.25,-0.01,2.67,0.47,2.67,2.27c0,1.71,-1.1,2.39,-2.92,2.39l-1.17,0l0,-3.79m7.31,2.04l0,0.5c0.84,0.03,1.01,0.13,1.32,0.9c0.87,2.1,2.32,5.82,2.74,7.03c0.1,0.29,0.13,0.55,0.13,0.85c0,0.4,-0.15,0.92,-0.41,1.48c-0.26,0.57,-0.57,0.73,-0.77,0.73c-0.17,0,-0.33,-0.05,-0.64,-0.36c-0.17,-0.15,-0.31,-0.24,-0.52,-0.24c-0.33,0,-0.76,0.47,-0.76,0.97c0,0.42,0.48,0.9,1.22,0.9c0.69,0,1.58,-0.2,2.47,-2.8c1.08,-3.11,2.68,-7.38,3.23,-8.6c0.31,-0.7,0.41,-0.84,1.29,-0.89l0,-0.5l-3.34,0l0,0.5l0.89,0.08c0.29,0.03,0.32,0.24,0.24,0.59c-0.26,1.05,-1.16,3.69,-1.92,5.79l-0.03,0c-0.8,-2.11,-1.5,-4.02,-2.15,-5.86c-0.1,-0.31,-0.13,-0.5,0.26,-0.54l0.75,-0.07l0,-0.5l-4,0m14.62,0.7l0,-0.7l-2.25,0l0,-2.2l-0.5,0l-1.06,2.2l-1.32,0l0,0.7l1.26,0l0,6.09c0,1.78,1.32,1.99,1.94,1.99c0.89,0,1.73,-0.45,2.23,-0.76l-0.13,-0.36c-0.42,0.17,-0.8,0.22,-1.24,0.22c-0.59,0,-1.15,-0.42,-1.15,-1.75l0,-5.42l2.25,0m8.03,3.27c0.36,0,0.7,-0.08,0.7,-0.66c0,-1.03,-0.33,-3.51,-3.53,-3.51c-2.72,0,-4.02,1.94,-4.02,4.56c0,2.76,1.18,4.46,4.04,4.42c1.94,-0.01,2.94,-1.08,3.41,-2.46l-0.52,-0.27c-0.49,1.01,-1.15,1.85,-2.53,1.85c-2.17,0,-2.6,-2.1,-2.57,-3.92l5.03,0m-5.02,-0.66c0,-0.71,0.26,-2.9,2.08,-2.9c1.62,0,1.81,1.66,1.81,2.34c0,0.33,-0.1,0.56,-0.59,0.56l-3.3,0m12.72,-0.87l0,-2.04c-0.57,-0.41,-1.46,-0.59,-2.25,-0.59c-1.89,0,-3.16,0.89,-3.18,2.55c0.01,1.45,1.19,2.1,2.64,2.53c0.78,0.24,1.89,0.64,1.89,1.83c0,0.89,-0.7,1.45,-1.62,1.45c-1.41,0,-2.2,-1.03,-2.55,-2.51l-0.5,0l0.17,2.29c0.63,0.55,1.69,0.83,2.73,0.83c2.08,0,3.27,-1.1,3.27,-2.58c0,-1.54,-0.94,-2.24,-2.74,-2.8c-0.71,-0.22,-1.87,-0.59,-1.87,-1.57c0.01,-0.91,0.7,-1.41,1.57,-1.41c1.24,0,1.83,0.96,1.96,2.02l0.5,0" fill="#000000" stroke="none" fill-opacity="1"/>
</g>
<path d="m26.22,475.05l-0.49,-0.08c-0.36,0.94,-0.71,1.06,-1.41,1.06l-4.47,0c0.27,-0.91,1.31,-2.15,2.94,-3.32c1.67,-1.22,2.97,-2.01,2.97,-3.97c0,-2.43,-1.61,-3.27,-3.44,-3.27c-2.39,0,-3.63,1.45,-3.63,2.36c0,0.59,0.66,0.87,0.96,0.87c0.31,0,0.43,-0.17,0.5,-0.47c0.28,-1.18,0.96,-2.15,2.04,-2.15c1.34,0,1.73,1.13,1.73,2.41c0,1.87,-0.94,2.92,-2.46,4.26c-2.15,1.87,-2.9,3.06,-3.23,4.42l0.17,0.17l7.24,0l0.59,-2.3m4.79,-2.38c1.08,0,1.99,-0.61,2.58,-1.46l0.03,0c0,1.1,-0.08,2.51,-0.4,3.72c-0.31,1.15,-0.92,2.02,-2.04,2.02c-1.19,0,-1.62,-0.92,-1.89,-1.75c-0.07,-0.22,-0.19,-0.36,-0.48,-0.36c-0.33,0,-0.82,0.35,-0.82,0.89c0,0.77,0.92,1.83,3.04,1.83c1.41,0,2.5,-0.52,3.16,-1.45c0.71,-0.99,1.15,-2.53,1.15,-5.07c0,-2.17,-0.43,-3.58,-1.11,-4.41c-0.66,-0.78,-1.62,-1.17,-2.74,-1.17c-2.23,0,-3.85,1.48,-3.85,3.9c0,2.18,1.57,3.3,3.37,3.3m0.52,-0.92c-1.36,0,-2.15,-1.19,-2.15,-2.87c0,-1.61,0.71,-2.8,2.08,-2.8c1.4,0,2.08,1.66,2.08,3.35c0,0.29,-0.01,0.64,-0.12,0.92c-0.27,0.82,-0.96,1.38,-1.88,1.38m9.37,-5.67c1.66,0,2.13,2.59,2.13,5.44c0,2.85,-0.47,5.44,-2.13,5.44c-1.66,0,-2.13,-2.58,-2.13,-5.44c0,-2.85,0.47,-5.44,2.13,-5.44m0,-0.61c-2.88,0,-3.92,2.55,-3.92,6.05c0,3.5,1.03,6.05,3.92,6.05c2.88,0,3.92,-2.55,3.92,-6.05c0,-3.5,-1.03,-6.05,-3.92,-6.05m9.27,0.61c1.66,0,2.13,2.59,2.13,5.44c0,2.85,-0.47,5.44,-2.13,5.44c-1.66,0,-2.13,-2.58,-2.13,-5.44c0,-2.85,0.47,-5.44,2.13,-5.44m0,-0.61c-2.88,0,-3.92,2.55,-3.92,6.05c0,3.5,1.03,6.05,3.92,6.05c2.88,0,3.92,-2.55,3.92,-6.05c0,-3.5,-1.03,-6.05,-3.92,-6.05" fill="#000000" stroke="none" fill-opacity="1"/>
<path d="m20.01,393.59c0,0.29,0.08,0.48,0.31,0.48c0.2,0,0.68,-0.17,1.52,-0.17c1.48,0,2.32,1.34,2.32,2.87c0,2.08,-1.03,2.81,-2.27,2.81c-1.15,0,-1.9,-0.87,-2.24,-1.85c-0.1,-0.33,-0.27,-0.48,-0.52,-0.48c-0.31,0,-0.92,0.33,-0.92,0.96c0,0.75,1.2,1.99,3.67,1.99c2.53,0,4.13,-1.27,4.13,-3.51c0,-2.34,-2.01,-3.04,-2.97,-3.13l0,-0.06c0.94,-0.15,2.46,-0.85,2.46,-2.59c0,-1.94,-1.52,-2.8,-3.39,-2.8c-2.3,0,-3.44,1.32,-3.44,2.08c0,0.54,0.61,0.83,0.85,0.83c0.22,0,0.36,-0.12,0.43,-0.35c0.38,-1.18,1.05,-1.95,2.03,-1.95c1.38,0,1.71,1.22,1.71,2.2c0,1.05,-0.36,2.36,-1.85,2.36c-0.84,0,-1.31,-0.17,-1.52,-0.17c-0.22,0,-0.31,0.17,-0.31,0.49m11.63,-4.88c1.66,0,2.13,2.59,2.13,5.44c0,2.85,-0.47,5.44,-2.13,5.44c-1.66,0,-2.13,-2.58,-2.13,-5.44c0,-2.85,0.47,-5.44,2.13,-5.44m0,-0.61c-2.88,0,-3.92,2.55,-3.92,6.05c0,3.5,1.03,6.05,3.92,6.05c2.88,0,3.92,-2.55,3.92,-6.05c0,-3.5,-1.03,-6.05,-3.92,-6.05m9.27,0.61c1.66,0,2.13,2.59,2.13,5.44c0,2.85,-0.47,5.44,-2.13,5.44c-1.66,0,-2.13,-2.58,-2.13,-5.44c0,-2.85,0.47,-5.44,2.13,-5.44m0,-0.61c-2.88,0,-3.92,2.55,-3.92,6.05c0,3.5,1.03,6.05,3.92,6.05c2.88,0,3.92,-2.55,3.92,-6.05c0,-3.5,-1.03,-6.05,-3.92,-6.05m9.27,0.61c1.66,0,2.13,2.59,2.13,5.44c0,2.85,-0.47,5.44,-2.13,5.44c-1.66,0,-2.13,-2.58,-2.13,-5.44c0,-2.85,0.47,-5.44,2.13,-5.44m0,-0.61c-2.88,0,-3.92,2.55,-3.92,6.05c0,3.5,1.03,6.05,3.92,6.05c2.88,0,3.92,-2.55,3.92,-6.05c0,-3.5,-1.03,-6.05,-3.92,-6.05" fill="#000000" stroke="none" fill-opacity="1"/>
<path d="m20.01,316.22c0,0.29,0.08,0.48,0.31,0.48c0.2,0,0.68,-0.17,1.52,-0.17c1.48,0,2.32,1.34,2.32,2.87c0,2.08,-1.03,2.81,-2.27,2.81c-1.15,0,-1.9,-0.87,-2.24,-1.85c-0.1,-0.33,-0.27,-0.48,-0.52,-0.48c-0.31,0,-0.92,0.33,-0.92,0.96c0,0.75,1.2,1.99,3.67,1.99c2.53,0,4.13,-1.27,4.13,-3.51c0,-2.34,-2.01,-3.04,-2.97,-3.13l0,-0.06c0.94,-0.15,2.46,-0.85,2.46,-2.59c0,-1.94,-1.52,-2.8,-3.39,-2.8c-2.3,0,-3.44,1.32,-3.44,2.08c0,0.54,0.61,0.83,0.85,0.83c0.22,0,0.36,-0.12,0.43,-0.35c0.38,-1.18,1.05,-1.95,2.03,-1.95c1.38,0,1.71,1.22,1.71,2.2c0,1.05,-0.36,2.36,-1.85,2.36c-0.84,0,-1.31,-0.17,-1.52,-0.17c-0.22,0,-0.31,0.17,-0.31,0.49m14.64,6.4l0,-0.5l-1.46,-0.12c-0.36,-0.03,-0.57,-0.17,-0.57,-0.85l0,-10.3l-0.08,-0.1l-3.6,0.61l0,0.43l1.62,0.19c0.29,0.03,0.42,0.17,0.42,0.68l0,8.48c0,0.33,-0.05,0.54,-0.15,0.66c-0.08,0.12,-0.22,0.17,-0.41,0.19l-1.47,0.12l0,0.5l5.73,0m6.26,-11.28c1.66,0,2.13,2.59,2.13,5.44c0,2.85,-0.47,5.44,-2.13,5.44c-1.66,0,-2.13,-2.58,-2.13,-5.44c0,-2.85,0.47,-5.44,2.13,-5.44m0,-0.61c-2.88,0,-3.92,2.55,-3.92,6.05c0,3.5,1.03,6.05,3.92,6.05c2.88,0,3.92,-2.55,3.92,-6.05c0,-3.5,-1.03,-6.05,-3.92,-6.05m9.27,0.61c1.66,0,2.13,2.59,2.13,5.44c0,2.85,-0.47,5.44,-2.13,5.44c-1.66,0,-2.13,-2.58,-2.13,-5.44c0,-2.85,0.47,-5.44,2.13,-5.44m0,-0.61c-2.88,0,-3.92,2.55,-3.92,6.05c0,3.5,1.03,6.05,3.92,6.05c2.88,0,3.92,-2.55,3.92,-6.05c0,-3.5,-1.03,-6.05,-3.92,-6.05" fill="#000000" stroke="none" fill-opacity="1"/>
<path d="m20.01,161.5c0,0.29,0.08,0.48,0.31,0.48c0.2,0,0.68,-0.17,1.52,-0.17c1.48,0,2.32,1.34,2.32,2.87c0,2.08,-1.03,2.81,-2.27,2.81c-1.15,0,-1.9,-0.87,-2.24,-1.85c-0.1,-0.33,-0.27,-0.48,-0.52,-0.48c-0.31,0,-0.92,0.33,-0.92,0.96c0,0.75,1.2,1.99,3.67,1.99c2.53,0,4.13,-1.27,4.13,-3.51c0,-2.34,-2.01,-3.04,-2.97,-3.13l0,-0.06c0.94,-0.15,2.46,-0.85,2.46,-2.59c0,-1.94,-1.52,-2.8,-3.39,-2.8c-2.3,0,-3.44,1.32,-3.44,2.08c0,0.54,0.61,0.83,0.85,0.83c0.22,0,0.36,-0.12,0.43,-0.35c0.38,-1.18,1.05,-1.95,2.03,-1.95c1.38,0,1.71,1.22,1.71,2.2c0,1.05,-0.36,2.36,-1.85,2.36c-0.84,0,-1.31,-0.17,-1.52,-0.17c-0.22,0,-0.31,0.17,-0.31,0.49m9.27,0c0,0.29,0.08,0.48,0.31,0.48c0.2,0,0.68,-0.17,1.52,-0.17c1.48,0,2.32,1.34,2.32,2.87c0,2.08,-1.03,2.81,-2.27,2.81c-1.15,0,-1.9,-0.87,-2.24,-1.85c-0.1,-0.33,-0.27,-0.48,-0.52,-0.48c-0.31,0,-0.92,0.33,-0.92,0.96c0,0.75,1.2,1.99,3.67,1.99c2.53,0,4.13,-1.27,4.13,-3.51c0,-2.34,-2.01,-3.04,-2.97,-3.13l0,-0.06c0.94,-0.15,2.46,-0.85,2.46,-2.59c0,-1.94,-1.52,-2.8,-3.39,-2.8c-2.3,0,-3.44,1.32,-3.44,2.08c0,0.54,0.61,0.83,0.85,0.83c0.22,0,0.36,-0.12,0.43,-0.35c0.38,-1.18,1.05,-1.95,2.03,-1.95c1.38,0,1.71,1.22,1.71,2.2c0,1.05,-0.36,2.36,-1.85,2.36c-0.84,0,-1.31,-0.17,-1.52,-0.17c-0.22,0,-0.31,0.17,-0.31,0.49m11.63,-4.88c1.66,0,2.13,2.59,2.13,5.44c0,2.85,-0.47,5.44,-2.13,5.44c-1.66,0,-2.13,-2.58,-2.13,-5.44c0,-2.85,0.47,-5.44,2.13,-5.44m0,-0.61c-2.88,0,-3.92,2.55,-3.92,6.05c0,3.5,1.03,6.05,3.92,6.05c2.88,0,3.92,-2.55,3.92,-6.05c0,-3.5,-1.03,-6.05,-3.92,-6.05m9.27,0.61c1.66,0,2.13,2.59,2.13,5.44c0,2.85,-0.47,5.44,-2.13,5.44c-1.66,0,-2.13,-2.58,-2.13,-5.44c0,-2.85,0.47,-5.44,2.13,-5.44m0,-0.61c-2.88,0,-3.92,2.55,-3.92,6.05c0,3.5,1.03,6.05,3.92,6.05c2.88,0,3.92,-2.55,3.92,-6.05c0,-3.5,-1.03,-6.05,-3.92,-6.05" fill="#000000" stroke="none" fill-opacity="1"/>
<path d="m20.01,84.14c0,0.29,0.08,0.48,0.31,0.48c0.2,0,0.68,-0.17,1.52,-0.17c1.48,0,2.32,1.34,2.32,2.87c0,2.08,-1.03,2.81,-2.27,2.81c-1.15,0,-1.9,-0.87,-2.24,-1.85c-0.1,-0.33,-0.27,-0.48,-0.52,-0.48c-0.31,0,-0.92,0.33,-0.92,0.96c0,0.75,1.2,1.99,3.67,1.99c2.53,0,4.13,-1.27,4.13,-3.51c0,-2.34,-2.01,-3.04,-2.97,-3.13l0,-0.06c0.94,-0.15,2.46,-0.85,2.46,-2.59c0,-1.94,-1.52,-2.8,-3.39,-2.8c-2.3,0,-3.44,1.32,-3.44,2.08c0,0.54,0.61,0.83,0.85,0.83c0.22,0,0.36,-0.12,0.43,-0.35c0.38,-1.18,1.05,-1.95,2.03,-1.95c1.38,0,1.71,1.22,1.71,2.2c0,1.05,-0.36,2.36,-1.85,2.36c-0.84,0,-1.31,-0.17,-1.52,-0.17c-0.22,0,-0.31,0.17,-0.31,0.49m12.24,3.27l0,1.78c0,0.59,-0.19,0.7,-0.61,0.73l-1.12,0.1l0,0.5l4.62,0l0,-0.5l-0.78,-0.08c-0.4,-0.05,-0.52,-0.15,-0.52,-0.75l0,-1.78l1.8,0l0,-0.82l-1.8,0l0,-7.73l-1.27,0c-1.64,2.41,-3.6,5.46,-5.21,8.19l0.15,0.36l4.75,0m-3.65,-0.82c1.05,-1.9,2.27,-3.92,3.62,-6.03l0.03,0l0,6.03l-3.65,0m12.31,-7.33c1.66,0,2.13,2.59,2.13,5.44c0,2.85,-0.47,5.44,-2.13,5.44c-1.66,0,-2.13,-2.58,-2.13,-5.44c0,-2.85,0.47,-5.44,2.13,-5.44m0,-0.61c-2.88,0,-3.92,2.55,-3.92,6.05c0,3.5,1.03,6.05,3.92,6.05c2.88,0,3.92,-2.55,3.92,-6.05c0,-3.5,-1.03,-6.05,-3.92,-6.05m9.27,0.61c1.66,0,2.13,2.59,2.13,5.44c0,2.85,-0.47,5.44,-2.13,5.44c-1.66,0,-2.13,-2.58,-2.13,-5.44c0,-2.85,0.47,-5.44,2.13,-5.44m0,-0.61c-2.88,0,-3.92,2.55,-3.92,6.05c0,3.5,1.03,6.05,3.92,6.05c2.88,0,3.92,-2.55,3.92,-6.05c0,-3.5,-1.03,-6.05,-3.92,-6.05" fill="#000000" stroke="none" fill-opacity="1"/>
<path d="m20.01,9.79c0,0.29,0.08,0.48,0.31,0.48c0.2,0,0.68,-0.17,1.52,-0.17c1.48,0,2.32,1.34,2.32,2.87c0,2.08,-1.03,2.81,-2.27,2.81c-1.15,0,-1.9,-0.87,-2.24,-1.85c-0.1,-0.33,-0.27,-0.48,-0.52,-0.48c-0.31,0,-0.92,0.33,-0.92,0.96c0,0.75,1.2,1.99,3.67,1.99c2.53,0,4.13,-1.27,4.13,-3.51c0,-2.34,-2.01,-3.04,-2.97,-3.13l0,-0.06c0.94,-0.15,2.46,-0.85,2.46,-2.59c0,-1.94,-1.52,-2.8,-3.39,-2.8c-2.3,0,-3.44,1.32,-3.44,2.08c0,0.54,0.61,0.83,0.85,0.83c0.22,0,0.36,-0.12,0.43,-0.35c0.38,-1.18,1.05,-1.95,2.03,-1.95c1.38,0,1.71,1.22,1.71,2.2c0,1.05,-0.36,2.36,-1.85,2.36c-0.84,0,-1.31,-0.17,-1.52,-0.17c-0.22,0,-0.31,0.17,-0.31,0.49m14.45,-3.95l0.42,-1.18l-0.08,-0.14l-5.84,0l-0.17,0.15l-0.35,5.86l0.42,0.21c0.73,-0.84,1.45,-1.24,2.39,-1.24c1.12,0,2.34,0.82,2.34,3.13c0,1.8,-0.73,3.16,-2.25,3.16c-1.22,0,-1.85,-0.89,-2.2,-1.88c-0.08,-0.26,-0.24,-0.42,-0.48,-0.42c-0.35,0,-0.92,0.35,-0.92,0.92c0,0.8,1.22,1.99,3.5,1.99c2.88,0,4.2,-1.75,4.2,-3.97c0,-2.45,-1.54,-3.7,-3.62,-3.7c-0.96,0,-1.99,0.41,-2.55,0.92l-0.03,-0.03l0.4,-3.27c0.05,-0.43,0.17,-0.5,0.5,-0.5l4.35,0m6.45,-0.92c1.66,0,2.13,2.59,2.13,5.44c0,2.85,-0.47,5.44,-2.13,5.44c-1.66,0,-2.13,-2.58,-2.13,-5.44c0,-2.85,0.47,-5.44,2.13,-5.44m0,-0.61c-2.88,0,-3.92,2.55,-3.92,6.05c0,3.5,1.03,6.05,3.92,6.05c2.88,0,3.92,-2.55,3.92,-6.05c0,-3.5,-1.03,-6.05,-3.92,-6.05m9.27,0.61c1.66,0,2.13,2.59,2.13,5.44c0,2.85,-0.47,5.44,-2.13,5.44c-1.66,0,-2.13,-2.58,-2.13,-5.44c0,-2.85,0.47,-5.44,2.13,-5.44m0,-0.61c-2.88,0,-3.92,2.55,-3.92,6.05c0,3.5,1.03,6.05,3.92,6.05c2.88,0,3.92,-2.55,3.92,-6.05c0,-3.5,-1.03,-6.05,-3.92,-6.05" fill="#000000" stroke="none" fill-opacity="1"/>
</g>
<g fill="none" stroke-linecap="butt" stroke-width="0.62">
<path d="M60.23,471.25l464.17,0"/>
<path d="M77.91,471.25l0,-3.75M96.51,471.25l0,-3.75M115.11,471.25l0,-3.75M133.72,471.25l0,-3.75M152.32,471.25l0,-3.75M170.93,471.25l0,-3.75M189.53,471.25l0,-3.75M208.13,471.25l0,-3.75M226.74,471.25l0,-3.75M245.34,471.25l0,-3.75M263.95,471.25l0,-3.75M282.55,471.25l0,-3.75M301.15,471.25l0,-3.75M319.76,471.25l0,-3.75M338.36,471.25l0,-3.75M356.97,471.25l0,-3.75M375.57,471.25l0,-3.75M394.18,471.25l0,-3.75M412.78,471.25l0,-3.75M431.38,471.25l0,-3.75M449.99,471.25l0,-3.75M468.59,471.25l0,-3.75M487.2,471.25l0,-3.75M505.8,471.25l0,-3.75M524.4,471.25l0,-3.75"/>
<path d="M152.32,471.25l0,-7.5M245.34,471.25l0,-7.5M338.36,471.25l0,-7.5M431.38,471.25l0,-7.5M524.4,471.25l0,-7.5"/>
</g>
<g fill="none" stroke-width="0.1">
<path d="m227.13,506.54l0,0.5c1.54,0.1,1.57,0.14,1.57,1.12l0,8.85c0,0.98,-0.03,1.01,-1.57,1.12l0,0.5l5.16,0l0,-0.5c-1.8,-0.1,-1.85,-0.13,-1.85,-1.12l0,-4.09l2.45,0c1.48,0,1.55,0.41,1.71,1.53l0.52,0l0,-3.74l-0.52,0c-0.15,1.12,-0.22,1.54,-1.71,1.54l-2.45,0l0,-4.47c0,-0.57,0.07,-0.63,0.64,-0.63l1.73,0c2.02,0,2.43,0.4,2.67,2.18l0.52,0l0,-2.8l-8.89,0m10.18,3.76l0,0.43l0.66,0.08c0.45,0.06,0.55,0.15,0.55,0.78l0,5.51c0,0.89,-0.05,0.92,-1.31,1.01l0,0.5l4.27,0l0,-0.5c-1.24,-0.08,-1.31,-0.12,-1.31,-1.01l0,-7.15l-0.12,-0.1l-2.74,0.43m2.03,-4.16c-0.63,0,-1.06,0.45,-1.06,1.08c0,0.61,0.43,1.05,1.06,1.05c0.64,0,1.05,-0.43,1.06,-1.05c0,-0.62,-0.42,-1.08,-1.06,-1.08m5.72,-0.36l-0.12,-0.1l-2.74,0.43l0,0.43l0.66,0.07c0.45,0.05,0.55,0.14,0.55,0.8l0,9.71c0,0.89,-0.05,0.92,-1.31,1.01l0,0.5l4.27,0l0,-0.5c-1.24,-0.08,-1.31,-0.12,-1.31,-1.01l0,-11.35m9.29,8.27c0.36,0,0.7,-0.08,0.7,-0.66c0,-1.03,-0.33,-3.51,-3.53,-3.51c-2.72,0,-4.02,1.94,-4.02,4.56c0,2.76,1.18,4.46,4.04,4.42c1.94,-0.01,2.94,-1.08,3.41,-2.46l-0.52,-0.27c-0.49,1.01,-1.15,1.85,-2.53,1.85c-2.17,0,-2.6,-2.1,-2.57,-3.92l5.03,0m-5.02,-0.66c0,-0.71,0.26,-2.9,2.08,-2.9c1.62,0,1.81,1.66,1.81,2.34c0,0.33,-0.1,0.56,-0.59,0.56l-3.3,0m11.28,4.47c0.77,0.71,2.22,1.05,3.44,1.05c3.09,0,4.32,-1.76,4.32,-3.55c0,-2.06,-1.4,-3.04,-3.44,-3.79l-0.55,-0.2c-1.17,-0.43,-2.15,-1.19,-2.15,-2.24c0,-1.27,0.77,-2.22,2.24,-2.22c1.5,0,2.34,0.85,2.62,2.62l0.54,0l0,-2.46c-0.59,-0.47,-1.78,-0.77,-2.97,-0.77c-2.13,0,-4.02,1.06,-4.02,3.37c0,1.83,1.47,2.8,3.3,3.44l0.31,0.12c0.76,0.29,2.43,1.1,2.43,2.65c0,1.5,-0.96,2.41,-2.51,2.41c-1.64,0,-2.73,-1.27,-3.16,-3.23l-0.55,0l0.17,2.8m9.06,-7.55l0,0.43l0.66,0.08c0.45,0.06,0.55,0.15,0.55,0.78l0,5.51c0,0.89,-0.05,0.92,-1.31,1.01l0,0.5l4.27,0l0,-0.5c-1.24,-0.08,-1.31,-0.12,-1.31,-1.01l0,-7.15l-0.12,-0.1l-2.74,0.43m2.03,-4.16c-0.63,0,-1.06,0.45,-1.06,1.08c0,0.61,0.43,1.05,1.06,1.05c0.64,0,1.05,-0.43,1.06,-1.05c0,-0.62,-0.42,-1.08,-1.06,-1.08m10.2,3.93l-6.72,0l0,2.59l0.54,0c0.22,-1.61,0.59,-1.97,2.48,-1.97l1.75,0c-1.8,2.57,-3.64,5.12,-5.51,7.7l0.13,0.26l7.43,0l0.17,-2.67l-0.54,0c-0.27,1.64,-0.87,2.06,-2.81,2.06l-2.25,0c1.76,-2.57,3.6,-5.14,5.46,-7.71l-0.14,-0.24m8.32,3.97c0.36,0,0.7,-0.08,0.7,-0.66c0,-1.03,-0.33,-3.51,-3.53,-3.51c-2.72,0,-4.02,1.94,-4.02,4.56c0,2.76,1.18,4.46,4.04,4.42c1.94,-0.01,2.94,-1.08,3.41,-2.46l-0.52,-0.27c-0.49,1.01,-1.15,1.85,-2.53,1.85c-2.17,0,-2.6,-2.1,-2.57,-3.92l5.03,0m-5.02,-0.66c0,-0.71,0.26,-2.9,2.08,-2.9c1.62,0,1.81,1.66,1.81,2.34c0,0.33,-0.1,0.56,-0.59,0.56l-3.3,0m10.88,-3.07l0,0.43l0.66,0.08c0.45,0.06,0.55,0.15,0.55,0.78l0,5.51c0,0.89,-0.05,0.92,-1.31,1.01l0,0.5l4.27,0l0,-0.5c-1.24,-0.08,-1.31,-0.12,-1.31,-1.01l0,-7.15l-0.12,-0.1l-2.74,0.43m2.03,-4.16c-0.63,0,-1.06,0.45,-1.06,1.08c0,0.61,0.43,1.05,1.06,1.05c0.64,0,1.05,-0.43,1.06,-1.05c0,-0.62,-0.42,-1.08,-1.06,-1.08m11.67,6.5c0,-1.76,-0.96,-2.78,-2.57,-2.78c-1.29,0,-2.1,0.62,-3.18,1.32l-0.24,-1.32l-2.6,0.43l0,0.43l0.66,0.08c0.45,0.06,0.55,0.15,0.55,0.78l0,5.51c0,0.89,-0.05,0.92,-1.31,1.01l0,0.5l4.27,0l0,-0.5c-1.24,-0.08,-1.31,-0.12,-1.31,-1.01l0,-4.09c0,-0.43,0.03,-0.68,0.17,-0.96c0.36,-0.68,1.15,-1.26,2.08,-1.26c1.19,0,1.83,0.66,1.83,2.18l0,4.13c0,0.89,-0.05,0.92,-1.31,1.01l0,0.5l4.27,0l0,-0.5c-1.24,-0.08,-1.31,-0.12,-1.31,-1.01l0,-4.48m11.54,6c2.65,0,4.37,-0.96,4.37,-3.39c0,-2.06,-1.47,-2.97,-3.16,-3.2l0,-0.03c1.64,-0.33,2.6,-1.34,2.6,-2.69c0,-0.96,-0.38,-1.67,-1.08,-2.15c-0.68,-0.45,-1.73,-0.64,-3.09,-0.63l-5.05,0l0,0.5c1.54,0.1,1.57,0.14,1.57,1.12l0,8.85c0,0.98,-0.03,1.01,-1.57,1.12l0,0.5l5.42,0m-2.11,-6.21l1.25,0c2.17,0,3.36,1.08,3.36,2.94c0,2.1,-1.43,2.65,-2.94,2.65c-1.4,0,-1.67,-0.26,-1.67,-1.34l0,-4.25m0,-4.41c0,-0.75,0.05,-0.85,1.41,-0.87c1.25,-0.01,2.67,0.47,2.67,2.27c0,1.71,-1.1,2.39,-2.92,2.39l-1.17,0l0,-3.79m7.31,2.04l0,0.5c0.84,0.03,1.01,0.13,1.32,0.9c0.87,2.1,2.32,5.82,2.74,7.03c0.1,0.29,0.13,0.55,0.13,0.85c0,0.4,-0.15,0.92,-0.41,1.48c-0.26,0.57,-0.57,0.73,-0.77,0.73c-0.17,0,-0.33,-0.05,-0.64,-0.36c-0.17,-0.15,-0.31,-0.24,-0.52,-0.24c-0.33,0,-0.76,0.47,-0.76,0.97c0,0.42,0.48,0.9,1.22,0.9c0.69,0,1.58,-0.2,2.47,-2.8c1.08,-3.11,2.68,-7.38,3.23,-8.6c0.31,-0.7,0.41,-0.84,1.29,-0.89l0,-0.5l-3.34,0l0,0.5l0.89,0.08c0.29,0.03,0.32,0.24,0.24,0.59c-0.26,1.05,-1.16,3.69,-1.92,5.79l-0.03,0c-0.8,-2.11,-1.5,-4.02,-2.15,-5.86c-0.1,-0.31,-0.13,-0.5,0.26,-0.54l0.75,-0.07l0,-0.5l-4,0m14.62,0.7l0,-0.7l-2.25,0l0,-2.2l-0.5,0l-1.06,2.2l-1.32,0l0,0.7l1.26,0l0,6.09c0,1.78,1.32,1.99,1.94,1.99c0.89,0,1.73,-0.45,2.23,-0.76l-0.13,-0.36c-0.42,0.17,-0.8,0.22,-1.24,0.22c-0.59,0,-1.15,-0.42,-1.15,-1.75l0,-5.42l2.25,0m8.03,3.27c0.36,0,0.7,-0.08,0.7,-0.66c0,-1.03,-0.33,-3.51,-3.53,-3.51c-2.72,0,-4.02,1.94,-4.02,4.56c0,2.76,1.18,4.46,4.04,4.42c1.94,-0.01,2.94,-1.08,3.41,-2.46l-0.52,-0.27c-0.49,1.01,-1.15,1.85,-2.53,1.85c-2.17,0,-2.6,-2.1,-2.57,-3.92l5.03,0m-5.02,-0.66c0,-0.71,0.26,-2.9,2.08,-2.9c1.62,0,1.81,1.66,1.81,2.34c0,0.33,-0.1,0.56,-0.59,0.56l-3.3,0m12.72,-0.87l0,-2.04c-0.57,-0.41,-1.46,-0.59,-2.25,-0.59c-1.89,0,-3.16,0.89,-3.18,2.55c0.01,1.45,1.19,2.1,2.64,2.53c0.78,0.24,1.89,0.64,1.89,1.83c0,0.89,-0.7,1.45,-1.62,1.45c-1.41,0,-2.2,-1.03,-2.55,-2.51l-0.5,0l0.17,2.29c0.63,0.55,1.69,0.83,2.73,0.83c2.08,0,3.27,-1.1,3.27,-2.58c0,-1.54,-0.94,-2.24,-2.74,-2.8c-0.71,-0.22,-1.87,-0.59,-1.87,-1.57c0.01,-0.91,0.7,-1.41,1.57,-1.41c1.24,0,1.83,0.96,1.96,2.02l0.5,0" fill="#000000" stroke="none" fill-opacity="1"/>
<path d="m146.06,492.25l0,-0.5l-1.46,-0.12c-0.36,-0.03,-0.57,-0.17,-0.57,-0.85l0,-10.3l-0.08,-0.1l-3.6,0.61l0,0.43l1.62,0.19c0.29,0.03,0.42,0.17,0.42,0.68l0,8.48c0,0.33,-0.05,0.54,-0.15,0.66c-0.08,0.12,-0.22,0.17,-0.41,0.19l-1.47,0.12l0,0.5l5.73,0m6.26,-11.28c1.66,0,2.13,2.59,2.13,5.44c0,2.85,-0.47,5.44,-2.13,5.44c-1.66,0,-2.13,-2.58,-2.13,-5.44c0,-2.85,0.47,-5.44,2.13,-5.44m0,-0.61c-2.88,0,-3.92,2.55,-3.92,6.05c0,3.5,1.03,6.05,3.92,6.05c2.88,0,3.92,-2.55,3.92,-6.05c0,-3.5,-1.03,-6.05,-3.92,-6.05m9.27,0.61c1.66,0,2.13,2.59,2.13,5.44c0,2.85,-0.47,5.44,-2.13,5.44c-1.66,0,-2.13,-2.58,-2.13,-5.44c0,-2.85,0.47,-5.44,2.13,-5.44m0,-0.61c-2.88,0,-3.92,2.55,-3.92,6.05c0,3.5,1.03,6.05,3.92,6.05c2.88,0,3.92,-2.55,3.92,-6.05c0,-3.5,-1.03,-6.05,-3.92,-6.05" fill="#000000" stroke="none" fill-opacity="1"/>
<path d="m239.92,489.95l-0.49,-0.08c-0.36,0.94,-0.71,1.06,-1.41,1.06l-4.47,0c0.27,-0.91,1.31,-2.15,2.94,-3.32c1.67,-1.22,2.97,-2.01,2.97,-3.97c0,-2.43,-1.61,-3.27,-3.44,-3.27c-2.39,0,-3.63,1.45,-3.63,2.36c0,0.59,0.66,0.87,0.96,0.87c0.31,0,0.43,-0.17,0.5,-0.47c0.28,-1.18,0.96,-2.15,2.04,-2.15c1.34,0,1.73,1.13,1.73,2.41c0,1.87,-0.94,2.92,-2.46,4.26c-2.15,1.87,-2.9,3.06,-3.23,4.42l0.17,0.17l7.24,0l0.59,-2.3m5.42,-8.97c1.66,0,2.13,2.59,2.13,5.44c0,2.85,-0.47,5.44,-2.13,5.44c-1.66,0,-2.13,-2.58,-2.13,-5.44c0,-2.85,0.47,-5.44,2.13,-5.44m0,-0.61c-2.88,0,-3.92,2.55,-3.92,6.05c0,3.5,1.03,6.05,3.92,6.05c2.88,0,3.92,-2.55,3.92,-6.05c0,-3.5,-1.03,-6.05,-3.92,-6.05m9.27,0.61c1.66,0,2.13,2.59,2.13,5.44c0,2.85,-0.47,5.44,-2.13,5.44c-1.66,0,-2.13,-2.58,-2.13,-5.44c0,-2.85,0.47,-5.44,2.13,-5.44m0,-0.61c-2.88,0,-3.92,2.55,-3.92,6.05c0,3.5,1.03,6.05,3.92,6.05c2.88,0,3.92,-2.55,3.92,-6.05c0,-3.5,-1.03,-6.05,-3.92,-6.05" fill="#000000" stroke="none" fill-opacity="1"/>
<path d="m326.73,485.85c0,0.29,0.08,0.48,0.31,0.48c0.2,0,0.68,-0.17,1.52,-0.17c1.48,0,2.32,1.34,2.32,2.87c0,2.08,-1.03,2.81,-2.27,2.81c-1.15,0,-1.9,-0.87,-2.24,-1.85c-0.1,-0.33,-0.27,-0.48,-0.52,-0.48c-0.31,0,-0.92,0.33,-0.92,0.96c0,0.75,1.2,1.99,3.67,1.99c2.53,0,4.13,-1.27,4.13,-3.51c0,-2.34,-2.01,-3.04,-2.97,-3.13l0,-0.06c0.94,-0.15,2.46,-0.85,2.46,-2.59c0,-1.94,-1.52,-2.8,-3.39,-2.8c-2.3,0,-3.44,1.32,-3.44,2.08c0,0.54,0.61,0.83,0.85,0.83c0.22,0,0.36,-0.12,0.43,-0.35c0.38,-1.18,1.05,-1.95,2.03,-1.95c1.38,0,1.71,1.22,1.71,2.2c0,1.05,-0.36,2.36,-1.85,2.36c-0.84,0,-1.31,-0.17,-1.52,-0.17c-0.22,0,-0.31,0.17,-0.31,0.49m11.63,-4.88c1.66,0,2.13,2.59,2.13,5.44c0,2.85,-0.47,5.44,-2.13,5.44c-1.66,0,-2.13,-2.58,-2.13,-5.44c0,-2.85,0.47,-5.44,2.13,-5.44m0,-0.61c-2.88,0,-3.92,2.55,-3.92,6.05c0,3.5,1.03,6.05,3.92,6.05c2.88,0,3.92,-2.55,3.92,-6.05c0,-3.5,-1.03,-6.05,-3.92,-6.05m9.27,0.61c1.66,0,2.13,2.59,2.13,5.44c0,2.85,-0.47,5.44,-2.13,5.44c-1.66,0,-2.13,-2.58,-2.13,-5.44c0,-2.85,0.47,-5.44,2.13,-5.44m0,-0.61c-2.88,0,-3.92,2.55,-3.92,6.05c0,3.5,1.03,6.05,3.92,6.05c2.88,0,3.92,-2.55,3.92,-6.05c0,-3.5,-1.03,-6.05,-3.92,-6.05" fill="#000000" stroke="none" fill-opacity="1"/>
<path d="m422.72,489.12l0,1.78c0,0.59,-0.19,0.7,-0.61,0.73l-1.12,0.1l0,0.5l4.62,0l0,-0.5l-0.78,-0.08c-0.4,-0.05,-0.52,-0.15,-0.52,-0.75l0,-1.78l1.8,0l0,-0.82l-1.8,0l0,-7.73l-1.27,0c-1.64,2.41,-3.6,5.46,-5.21,8.19l0.15,0.36l4.75,0m-3.65,-0.82c1.05,-1.9,2.27,-3.92,3.62,-6.03l0.03,0l0,6.03l-3.65,0m12.31,-7.33c1.66,0,2.13,2.59,2.13,5.44c0,2.85,-0.47,5.44,-2.13,5.44c-1.66,0,-2.13,-2.58,-2.13,-5.44c0,-2.85,0.47,-5.44,2.13,-5.44m0,-0.61c-2.88,0,-3.92,2.55,-3.92,6.05c0,3.5,1.03,6.05,3.92,6.05c2.88,0,3.92,-2.55,3.92,-6.05c0,-3.5,-1.03,-6.05,-3.92,-6.05m9.27,0.61c1.66,0,2.13,2.59,2.13,5.44c0,2.85,-0.47,5.44,-2.13,5.44c-1.66,0,-2.13,-2.58,-2.13,-5.44c0,-2.85,0.47,-5.44,2.13,-5.44m0,-0.61c-2.88,0,-3.92,2.55,-3.92,6.05c0,3.5,1.03,6.05,3.92,6.05c2.88,0,3.92,-2.55,3.92,-6.05c0,-3.5,-1.03,-6.05,-3.92,-6.05" fill="#000000" stroke="none" fill-opacity="1"/>
<path d="m511.12,481.89l0.42,-1.18l-0.08,-0.14l-5.84,0l-0.17,0.15l-0.35,5.86l0.42,0.21c0.73,-0.84,1.45,-1.24,2.39,-1.24c1.12,0,2.34,0.82,2.34,3.13c0,1.8,-0.73,3.16,-2.25,3.16c-1.22,0,-1.85,-0.89,-2.2,-1.88c-0.08,-0.26,-0.24,-0.42,-0.48,-0.42c-0.35,0,-0.92,0.35,-0.92,0.92c0,0.8,1.22,1.99,3.5,1.99c2.88,0,4.2,-1.75,4.2,-3.97c0,-2.45,-1.54,-3.7,-3.62,-3.7c-0.96,0,-1.99,0.41,-2.55,0.92l-0.03,-0.03l0.4,-3.27c0.05,-0.43,0.17,-0.5,0.5,-0.5l4.35,0m6.45,-0.92c1.66,0,2.13,2.59,2.13,5.44c0,2.85,-0.47,5.44,-2.13,5.44c-1.66,0,-2.13,-2.58,-2.13,-5.44c0,-2.85,0.47,-5.44,2.13,-5.44m0,-0.61c-2.88,0,-3.92,2.55,-3.92,6.05c0,3.5,1.03,6.05,3.92,6.05c2.88,0,3.92,-2.55,3.92,-6.05c0,-3.5,-1.03,-6.05,-3.92,-6.05m9.27,0.61c1.66,0,2.13,2.59,2.13,5.44c0,2.85,-0.47,5.44,-2.13,5.44c-1.66,0,-2.13,-2.58,-2.13,-5.44c0,-2.85,0.47,-5.44,2.13,-5.44m0,-0.61c-2.88,0,-3.92,2.55,-3.92,6.05c0,3.5,1.03,6.05,3.92,6.05c2.88,0,3.92,-2.55,3.92,-6.05c0,-3.5,-1.03,-6.05,-3.92,-6.05" fill="#000000" stroke="none" fill-opacity="1"/>
</g>
<g fill="none" stroke-linecap="butt" stroke-width="0.62">
<path d="M524.4,471.25l0,-464.17"/>
<path d="M524.4,471.25l-3.75,0M524.4,432.57l-3.75,0M524.4,393.89l-3.75,0M524.4,355.21l-3.75,0M524.4,316.53l-3.75,0M524.4,277.85l-3.75,0M524.4,239.17l-3.75,0M524.4,200.49l-3.75,0M524.4,161.81l-3.75,0M524.4,123.12l-3.75,0M524.4,84.44l-3.75,0M524.4,45.76l-3.75,0M524.4,7.08l-3.75,0"/>
<path d="M524.4,471.25l-7.5,0M524.4,393.89l-7.5,0M524.4,316.53l-7.5,0M524.4,239.17l-7.5,0M524.4,161.81l-7.5,0M524.4,84.44l-7.5,0M524.4,7.08l-7.5,0"/>
<path d="M60.23,7.08l464.17,0"/>
<path d="M77.91,7.08l0,3.75M96.51,7.08l0,3.75M115.11,7.08l0,3.75M133.72,7.08l0,3.75M152.32,7.08l0,3.75M170.93,7.08l0,3.75M189.53,7.08l0,3.75M208.13,7.08l0,3.75M226.74,7.08l0,3.75M245.34,7.08l0,3.75M263.95,7.08l0,3.75M282.55,7.08l0,3.75M301.15,7.08l0,3.75M319.76,7.08l0,3.75M338.36,7.08l0,3.75M356.97,7.08l0,3.75M375.57,7.08l0,3.75M394.18,7.08l0,3.75M412.78,7.08l0,3.75M431.38,7.08l0,3.75M449.99,7.08l0,3.75M468.59,7.08l0,3.75M487.2,7.08l0,3.75M505.8,7.08l0,3.75M524.4,7.08l0,3.75"/>
<path d="M152.32,7.08l0,7.5M245.34,7.08l0,7.5M338.36,7.08l0,7.5M431.38,7.08l0,7.5M524.4,7.08l0,7.5"/>
</g>
</g>
</g>
</svg>
