<?xml version="1.0" standalone="no"?>
<!DOCTYPE svg PUBLIC "-//W3C//DTD SVG 1.1//EN"
  "http://www.w3.org/Graphics/SVG/1.1/DTD/svg11.dtd">
<svg width="531.49px" height="531.49px" version="1.1"
    xmlns="http://www.w3.org/2000/svg"
    xmlns:xlink="http://www.w3.org/1999/xlink">
<desc>Veusz output document</desc>
<defs>
<clipPath id="c0">
<path d="m0,0l531.49,0l0,531.49l-531.49,0l0,-531.49"/>
</clipPath>
<clipPath id="c1">
<path d="m60.23,7.08l464.17,0l0,464.17l-464.17,0l0,-464.17"/>
</clipPath>
<clipPath id="c2">
<path d="m62.44,471.25l0,-2.05l0,2.05m19.89,0l0,-22.98l0,22.98m22.1,0l0,-40.36l0,40.36m44.2,0l0,-81.85l0,81.85m353.65,0l0,-418.48l0,418.48m-439.85,0l0,-2.15l0,2.15m19.89,0l0,-20.29l0,20.29m22.1,0l0,-41.05l0,41.05m44.2,0l0,-81.97l0,81.97m353.65,0l0,-417.91l0,417.91m-439.85,0l0,-2.06l0,2.06m19.89,0l0,-20.38l0,20.38m22.1,0l0,-41.38l0,41.38m44.2,0l0,-81.65l0,81.65m353.65,0l0,-419.1l0,419.1m-439.85,0l0,-2.07l0,2.07m19.89,0l0,-20.45l0,20.45m22.1,0l0,-40.84l0,40.84m44.2,0l0,-81.57l0,81.57m-86.2,0l0,-2.24l0,2.24m19.89,0l0,-20.74l0,20.74m22.1,0l0,-41.43l0,41.43m44.2,0l0,-83.21l0,83.21m353.65,0l0,-428.94l0,428.94m-439.85,0l0,-2.14l0,2.14m19.89,0l0,-21.74l0,21.74m22.1,0l0,-43.69l0,43.69m44.2,0l0,-91.67l0,91.67m-86.2,0l0,-2.18l0,2.18m19.89,0l0,-23.24l0,23.24m198.93,0l0,-226.23l0,226.23m0,0l0,-219.91l0,219.91"/>
</clipPath>
</defs>
<g stroke-linejoin="bevel" stroke-linecap="square" stroke="#000000" fill-rule="evenodd">
<g clip-path="url(#c0)">
<g fill="#ffffff" stroke-width="0.62">
<path d="m60.23,7.08l464.17,0l0,464.17l-464.17,0l0,-464.17"/>
</g>
</g>
<g clip-path="url(#c2)">
<g fill="none" stroke-width="0.62">
<path d="M0,0l0,0"/>
</g>
</g>
<g clip-path="url(#c1)">
<g fill="none" stroke-width="0.62">
<path d="m62.44,471.25l0,-2.05l0,2.05m19.89,0l0,-22.98l0,22.98m22.1,0l0,-40.36l0,40.36m44.2,0l0,-81.85l0,81.85m353.65,0l0,-418.48l0,418.48m-439.85,0l0,-2.15l0,2.15m19.89,0l0,-20.29l0,20.29m22.1,0l0,-41.05l0,41.05m44.2,0l0,-81.97l0,81.97m353.65,0l0,-417.91l0,417.91m-439.85,0l0,-2.06l0,2.06m19.89,0l0,-20.38l0,20.38m22.1,0l0,-41.38l0,41.38m44.2,0l0,-81.65l0,81.65m353.65,0l0,-419.1l0,419.1m-439.85,0l0,-2.07l0,2.07m19.89,0l0,-20.45l0,20.45m22.1,0l0,-40.84l0,40.84m44.2,0l0,-81.57l0,81.57m-86.2,0l0,-2.24l0,2.24m19.89,0l0,-20.74l0,20.74m22.1,0l0,-41.43l0,41.43m44.2,0l0,-83.21l0,83.21m353.65,0l0,-428.94l0,428.94m-439.85,0l0,-2.14l0,2.14m19.89,0l0,-21.74l0,21.74m22.1,0l0,-43.69l0,43.69m44.2,0l0,-91.67l0,91.67m-86.2,0l0,-2.18l0,2.18m19.89,0l0,-23.24l0,23.24m198.93,0l0,-226.23l0,226.23m0,0l0,-219.91l0,219.91"/>
</g>
</g>
<g clip-path="url(#c0)">
<g fill="#ffffff" stroke="none" stroke-width="0.1">
<path d="m289.47,411.25l214.93,0l0,40l-214.93,0l0,-40" id="p0"/>
</g>
<g fill="none" stroke-width="0.62">
<use xlink:href="#p0"/>
</g>
<g fill="none" stroke="#ff0000" stroke-width="0.62">
<path d="M309.47,431.25l35.43,0"/>
</g>
<g fill="none" stroke-width="0.1">
<path d="m368.42,428.98l2.13,0l0,-0.7l-2.13,0l-0.07,-1.96c-0.05,-1.66,0.56,-1.83,0.84,-1.83c0.36,0,0.75,0.17,1.19,1.19c0.08,0.17,0.2,0.29,0.47,0.29c0.35,0,0.85,-0.29,0.85,-0.82c0,-0.57,-0.73,-1.27,-2.13,-1.27c-0.96,0,-1.78,0.43,-2.22,1.1c-0.4,0.61,-0.57,1.54,-0.57,2.69l0,0.61l-1.34,0l0,0.7l1.34,0l0,6.35c0,0.89,-0.05,0.92,-1.31,1.01l0,0.5l4.62,0l0,-0.5c-1.59,-0.07,-1.66,-0.1,-1.66,-0.99l0,-6.37m2.71,-0.47l0,0.43l0.66,0.08c0.45,0.06,0.55,0.15,0.55,0.78l0,5.51c0,0.89,-0.05,0.92,-1.31,1.01l0,0.5l4.27,0l0,-0.5c-1.24,-0.08,-1.31,-0.12,-1.31,-1.01l0,-7.15l-0.12,-0.1l-2.74,0.43m2.03,-4.16c-0.63,0,-1.06,0.45,-1.06,1.08c0,0.61,0.43,1.05,1.06,1.05c0.64,0,1.05,-0.43,1.06,-1.05c0,-0.62,-0.42,-1.08,-1.06,-1.08m8.11,4.63l0,-0.7l-2.25,0l0,-2.2l-0.5,0l-1.06,2.2l-1.32,0l0,0.7l1.26,0l0,6.09c0,1.78,1.32,1.99,1.94,1.99c0.89,0,1.73,-0.45,2.23,-0.76l-0.13,-0.36c-0.42,0.17,-0.8,0.22,-1.24,0.22c-0.59,0,-1.15,-0.42,-1.15,-1.75l0,-5.42l2.25,0m6.01,0l0,-0.7l-2.25,0l0,-2.2l-0.5,0l-1.06,2.2l-1.32,0l0,0.7l1.26,0l0,6.09c0,1.78,1.32,1.99,1.94,1.99c0.89,0,1.73,-0.45,2.23,-0.76l-0.13,-0.36c-0.42,0.17,-0.8,0.22,-1.24,0.22c-0.59,0,-1.15,-0.42,-1.15,-1.75l0,-5.42l2.25,0m0.96,-0.47l0,0.43l0.66,0.08c0.45,0.06,0.55,0.15,0.55,0.78l0,5.51c0,0.89,-0.05,0.92,-1.31,1.01l0,0.5l4.27,0l0,-0.5c-1.24,-0.08,-1.31,-0.12,-1.31,-1.01l0,-7.15l-0.12,-0.1l-2.74,0.43m2.03,-4.16c-0.63,0,-1.06,0.45,-1.06,1.08c0,0.61,0.43,1.05,1.06,1.05c0.64,0,1.05,-0.43,1.06,-1.05c0,-0.62,-0.42,-1.08,-1.06,-1.08m11.67,6.5c0,-1.76,-0.96,-2.78,-2.57,-2.78c-1.29,0,-2.1,0.62,-3.18,1.32l-0.24,-1.32l-2.6,0.43l0,0.43l0.66,0.08c0.45,0.06,0.55,0.15,0.55,0.78l0,5.51c0,0.89,-0.05,0.92,-1.31,1.01l0,0.5l4.27,0l0,-0.5c-1.24,-0.08,-1.31,-0.12,-1.31,-1.01l0,-4.09c0,-0.43,0.03,-0.68,0.17,-0.96c0.36,-0.68,1.15,-1.26,2.08,-1.26c1.19,0,1.83,0.66,1.83,2.18l0,4.13c0,0.89,-0.05,0.92,-1.31,1.01l0,0.5l4.27,0l0,-0.5c-1.24,-0.08,-1.31,-0.12,-1.31,-1.01l0,-4.48m6.12,-2.16c0.85,0,1.75,0.62,1.75,2.32c0,1.47,-0.77,2.24,-1.78,2.24c-0.98,0,-1.8,-0.77,-1.8,-2.24c0,-1.73,0.9,-2.32,1.83,-2.32m0.36,11.79c-1.48,0,-2.52,-0.76,-2.52,-2.02c0,-0.59,0.17,-1.03,0.54,-1.31c0.38,-0.29,0.96,-0.4,1.8,-0.4c1.54,0,2.67,0.36,2.67,1.67c0,1.4,-1.26,2.06,-2.5,2.06m1.89,-11.86c-0.49,-0.33,-1.45,-0.54,-2.25,-0.54c-2.67,0,-3.62,1.64,-3.62,2.93c0,1.64,1.08,2.39,1.88,2.6l0,0.03c-0.94,0.36,-1.6,0.87,-1.6,1.55c0,0.61,0.7,1.27,1.53,1.36l0,0.03c-0.75,0.24,-2.01,0.66,-2.01,1.92c0,1.76,1.75,2.55,3.78,2.55c1.05,0,2.15,-0.2,2.99,-0.71c0.8,-0.48,1.38,-1.31,1.38,-2.39c0,-1.89,-1.5,-2.55,-3.37,-2.55l-1.4,0c-1.25,0,-1.45,-0.42,-1.45,-0.75c0,-0.5,0.66,-0.78,0.89,-0.85c0.33,0.03,0.7,0.05,0.89,0.05c1.66,0,3.53,-0.73,3.53,-2.85c0,-0.73,-0.22,-1.34,-0.52,-1.64l1.38,-0.2l0.35,-1.1l-0.13,-0.15l-2.24,0.71m9.74,0.36l2.13,0l0,-0.7l-2.13,0l-0.07,-1.96c-0.05,-1.66,0.56,-1.83,0.84,-1.83c0.36,0,0.75,0.17,1.19,1.19c0.08,0.17,0.2,0.29,0.47,0.29c0.35,0,0.85,-0.29,0.85,-0.82c0,-0.57,-0.73,-1.27,-2.13,-1.27c-0.96,0,-1.78,0.43,-2.22,1.1c-0.4,0.61,-0.57,1.54,-0.57,2.69l0,0.61l-1.34,0l0,0.7l1.34,0l0,6.35c0,0.89,-0.05,0.92,-1.31,1.01l0,0.5l4.62,0l0,-0.5c-1.59,-0.07,-1.66,-0.1,-1.66,-0.99l0,-6.37m12.4,7.87l0,-0.5c-1.2,-0.08,-1.31,-0.12,-1.31,-1.03l0,-7.14l-0.12,-0.1l-2.74,0.43l0,0.43l0.66,0.08c0.45,0.07,0.55,0.15,0.55,0.78l0,3.92c0,0.48,-0.05,0.87,-0.13,1.04c-0.4,0.8,-1.24,1.3,-2.15,1.3c-1.01,0,-1.76,-0.62,-1.76,-1.99l0,-5.93l-0.12,-0.1l-2.74,0.43l0,0.43l0.66,0.08c0.45,0.07,0.55,0.15,0.55,0.78l0,4.6c0,2.01,1.19,2.62,2.48,2.62c1.48,0,2.69,-1.01,3.2,-1.25l0.17,1.06l2.8,0m9.52,-6c0,-1.76,-0.96,-2.78,-2.57,-2.78c-1.29,0,-2.1,0.62,-3.18,1.32l-0.24,-1.32l-2.6,0.43l0,0.43l0.66,0.08c0.45,0.06,0.55,0.15,0.55,0.78l0,5.51c0,0.89,-0.05,0.92,-1.31,1.01l0,0.5l4.27,0l0,-0.5c-1.24,-0.08,-1.31,-0.12,-1.31,-1.01l0,-4.09c0,-0.43,0.03,-0.68,0.17,-0.96c0.36,-0.68,1.15,-1.26,2.08,-1.26c1.19,0,1.83,0.66,1.83,2.18l0,4.13c0,0.89,-0.05,0.92,-1.31,1.01l0,0.5l4.27,0l0,-0.5c-1.24,-0.08,-1.31,-0.12,-1.31,-1.01l0,-4.48m6.82,5.3c-2.08,0,-2.57,-2.17,-2.57,-3.81c0,-2.6,1.03,-3.65,2.23,-3.65c0.8,0,1.31,0.57,1.66,1.52c0.1,0.27,0.21,0.45,0.54,0.45c0.35,0,1.03,-0.22,1.03,-0.89c0,-0.8,-1.15,-1.69,-3.04,-1.69c-3.18,0,-4.25,2.25,-4.25,4.58c0,2.92,1.43,4.4,4.05,4.4c1.22,0,2.87,-0.64,3.36,-2.51l-0.5,-0.24c-0.54,1.22,-1.24,1.85,-2.52,1.85m9.13,-7.17l0,-0.7l-2.25,0l0,-2.2l-0.5,0l-1.06,2.2l-1.32,0l0,0.7l1.26,0l0,6.09c0,1.78,1.32,1.99,1.94,1.99c0.89,0,1.73,-0.45,2.23,-0.76l-0.13,-0.36c-0.42,0.17,-0.8,0.22,-1.24,0.22c-0.59,0,-1.15,-0.42,-1.15,-1.75l0,-5.42l2.25,0m0.96,-0.47l0,0.43l0.66,0.08c0.45,0.06,0.55,0.15,0.55,0.78l0,5.51c0,0.89,-0.05,0.92,-1.31,1.01l0,0.5l4.27,0l0,-0.5c-1.24,-0.08,-1.31,-0.12,-1.31,-1.01l0,-7.15l-0.12,-0.1l-2.74,0.43m2.03,-4.16c-0.63,0,-1.06,0.45,-1.06,1.08c0,0.61,0.43,1.05,1.06,1.05c0.64,0,1.05,-0.43,1.06,-1.05c0,-0.62,-0.42,-1.08,-1.06,-1.08m7.45,3.72c-2.8,0,-4.18,1.66,-4.18,4.49c0,2.83,1.38,4.49,4.18,4.49c2.83,0,4.2,-1.66,4.2,-4.49c0,-2.83,-1.36,-4.49,-4.2,-4.49m-2.36,4.49c0,-2.41,0.76,-3.88,2.36,-3.88c1.62,0,2.37,1.46,2.37,3.88c0,2.41,-0.75,3.88,-2.37,3.88c-1.59,0,-2.36,-1.46,-2.36,-3.88m16.67,-1.71c0,-1.76,-0.96,-2.78,-2.57,-2.78c-1.29,0,-2.1,0.62,-3.18,1.32l-0.24,-1.32l-2.6,0.43l0,0.43l0.66,0.08c0.45,0.06,0.55,0.15,0.55,0.78l0,5.51c0,0.89,-0.05,0.92,-1.31,1.01l0,0.5l4.27,0l0,-0.5c-1.24,-0.08,-1.31,-0.12,-1.31,-1.01l0,-4.09c0,-0.43,0.03,-0.68,0.17,-0.96c0.36,-0.68,1.15,-1.26,2.08,-1.26c1.19,0,1.83,0.66,1.83,2.18l0,4.13c0,0.89,-0.05,0.92,-1.31,1.01l0,0.5l4.27,0l0,-0.5c-1.24,-0.08,-1.31,-0.12,-1.31,-1.01l0,-4.48" fill="#000000" stroke="none" fill-opacity="1"/>
</g>
</g>
<g clip-path="url(#c1)">
<g fill="none" stroke="#ff0000" stroke-width="0.62">
<polyline fill="none" points="60.23,471.25 69.7,462.21 79.18,453.16 88.65,444.11 98.12,435.06 107.6,426.01 117.07,416.96 126.54,407.91 136.01,398.86 145.49,389.81 154.96,380.76 164.43,371.72 173.91,362.67 183.38,353.62 192.85,344.57 202.33,335.52 211.8,326.47 221.27,317.42 230.74,308.37 240.22,299.32 249.69,290.27 259.16,281.23 268.64,272.18 278.11,263.13 287.58,254.08 297.05,245.03 306.53,235.98 316,226.93 325.47,217.88 334.95,208.83 344.42,199.78 353.89,190.74 363.36,181.69 372.84,172.64 382.31,163.59 391.78,154.54 401.26,145.49 410.73,136.44 420.2,127.39 429.68,118.34 439.15,109.29 448.62,100.25 458.09,91.2 467.57,82.15 477.04,73.1 486.51,64.05 495.99,55 505.46,45.95 514.93,36.9 524.4,27.85"/>
</g>
</g>
<g clip-path="url(#c0)">
<g fill="none" stroke-linecap="butt" stroke-width="0.62">
<path d="M60.23,471.25l0,-464.17"/>
<path d="M60.23,471.25l3.75,0M60.23,450.62l3.75,0M60.23,430l3.75,0M60.23,409.37l3.75,0M60.23,388.74l3.75,0M60.23,368.11l3.75,0M60.23,347.48l3.75,0M60.23,326.85l3.75,0M60.23,306.22l3.75,0M60.23,285.59l3.75,0M60.23,264.96l3.75,0M60.23,244.33l3.75,0M60.23,223.7l3.75,0M60.23,203.07l3.75,0M60.23,182.44l3.75,0M60.23,161.81l3.75,0M60.23,141.18l3.75,0M60.23,120.55l3.75,0M60.23,99.92l3.75,0M60.23,79.29l3.75,0M60.23,58.66l3.75,0M60.23,38.03l3.75,0M60.23,17.4l3.75,0"/>
<path d="M60.23,471.25l7.5,0M60.23,368.11l7.5,0M60.23,264.96l7.5,0M60.23,161.81l7.5,0M60.23,58.66l7.5,0"/>
</g>
<g fill="none" stroke-width="0.1">
<g transform="matrix(0 -1 1 0 21.08 303.78)">
<path d="m6.3,-11.49l1.03,0c2.04,0,2.41,0.38,2.62,2.29l0.52,0l0,-2.9l-10.09,0l0,2.9l0.52,0c0.21,-1.9,0.57,-2.29,2.62,-2.29l1.03,0l0,9.87c0,0.98,-0.05,1.01,-1.92,1.12l0,0.5l5.58,0l0,-0.5c-1.87,-0.1,-1.92,-0.13,-1.92,-1.12l0,-9.87m5.21,3.15l0,0.43l0.66,0.08c0.45,0.06,0.55,0.15,0.55,0.78l0,5.51c0,0.89,-0.05,0.92,-1.31,1.01l0,0.5l4.27,0l0,-0.5c-1.24,-0.08,-1.31,-0.12,-1.31,-1.01l0,-7.15l-0.12,-0.1l-2.74,0.43m2.03,-4.16c-0.63,0,-1.06,0.45,-1.06,1.08c0,0.61,0.43,1.05,1.06,1.05c0.64,0,1.05,-0.43,1.06,-1.05c0,-0.62,-0.42,-1.08,-1.06,-1.08m3.06,4.16l0,0.43l0.66,0.08c0.45,0.06,0.55,0.15,0.55,0.78l0,5.51c0,0.89,-0.05,0.92,-1.31,1.01l0,0.5l4.27,0l0,-0.5c-1.24,-0.08,-1.31,-0.12,-1.31,-1.01l0,-4.09c0,-0.43,0.01,-0.68,0.14,-0.92c0.33,-0.7,1.1,-1.29,2.06,-1.29c1.5,0,1.68,1.1,1.68,2.18l0,4.13c0,0.89,-0.05,0.92,-1.31,1.01l0,0.5l4.27,0l0,-0.5c-1.24,-0.08,-1.31,-0.12,-1.31,-1.01l0,-4.09c0,-0.43,0.01,-0.68,0.12,-0.96c0.26,-0.7,1.01,-1.26,1.99,-1.26c1.1,-0.03,1.76,0.66,1.76,2.18l0,4.13c0,0.89,-0.05,0.92,-1.31,1.01l0,0.5l4.27,0l0,-0.5c-1.24,-0.08,-1.31,-0.12,-1.31,-1.01l0,-4.48c0,-1.76,-0.94,-2.78,-2.6,-2.78c-1.43,0,-2.46,0.96,-3.07,1.34c-0.42,-0.82,-1.08,-1.34,-2.31,-1.34c-1.34,0,-2.45,0.87,-3.06,1.32l-0.15,-1.32l-2.71,0.43m23.22,3.74c0.36,0,0.7,-0.08,0.7,-0.66c0,-1.03,-0.33,-3.51,-3.53,-3.51c-2.72,0,-4.02,1.94,-4.02,4.56c0,2.76,1.18,4.46,4.04,4.42c1.94,-0.01,2.94,-1.08,3.41,-2.46l-0.52,-0.27c-0.49,1.01,-1.15,1.85,-2.53,1.85c-2.17,0,-2.6,-2.1,-2.57,-3.92l5.03,0m-5.02,-0.66c0,-0.71,0.26,-2.9,2.08,-2.9c1.62,0,1.81,1.66,1.81,2.34c0,0.33,-0.1,0.56,-0.59,0.56l-3.3,0m10.88,-3.07l0,0.43l0.66,0.08c0.45,0.06,0.55,0.15,0.55,0.78l0,5.51c0,0.89,-0.05,0.92,-1.31,1.01l0,0.5l4.27,0l0,-0.5c-1.24,-0.08,-1.31,-0.12,-1.31,-1.01l0,-7.15l-0.12,-0.1l-2.74,0.43m2.03,-4.16c-0.63,0,-1.06,0.45,-1.06,1.08c0,0.61,0.43,1.05,1.06,1.05c0.64,0,1.05,-0.43,1.06,-1.05c0,-0.62,-0.42,-1.08,-1.06,-1.08m11.67,6.5c0,-1.76,-0.96,-2.78,-2.57,-2.78c-1.29,0,-2.1,0.62,-3.18,1.32l-0.24,-1.32l-2.6,0.43l0,0.43l0.66,0.08c0.45,0.06,0.55,0.15,0.55,0.78l0,5.51c0,0.89,-0.05,0.92,-1.31,1.01l0,0.5l4.27,0l0,-0.5c-1.24,-0.08,-1.31,-0.12,-1.31,-1.01l0,-4.09c0,-0.43,0.03,-0.68,0.17,-0.96c0.36,-0.68,1.15,-1.26,2.08,-1.26c1.19,0,1.83,0.66,1.83,2.18l0,4.13c0,0.89,-0.05,0.92,-1.31,1.01l0,0.5l4.27,0l0,-0.5c-1.24,-0.08,-1.31,-0.12,-1.31,-1.01l0,-4.48m11.93,-0.13l0,-2.04c-0.57,-0.41,-1.46,-0.59,-2.25,-0.59c-1.89,0,-3.16,0.89,-3.18,2.55c0.01,1.45,1.19,2.1,2.64,2.53c0.78,0.24,1.89,0.64,1.89,1.83c0,0.89,-0.7,1.45,-1.62,1.45c-1.41,0,-2.2,-1.03,-2.55,-2.51l-0.5,0l0.17,2.29c0.63,0.55,1.69,0.83,2.73,0.83c2.08,0,3.27,-1.1,3.27,-2.58c0,-1.54,-0.94,-2.24,-2.74,-2.8c-0.71,-0.22,-1.87,-0.59,-1.87,-1.57c0.01,-0.91,0.7,-1.41,1.57,-1.41c1.24,0,1.83,0.96,1.96,2.02l0.5,0m8.92,1.53c0.36,0,0.7,-0.08,0.7,-0.66c0,-1.03,-0.33,-3.51,-3.53,-3.51c-2.72,0,-4.02,1.94,-4.02,4.56c0,2.76,1.18,4.46,4.04,4.42c1.94,-0.01,2.94,-1.08,3.41,-2.46l-0.52,-0.27c-0.49,1.01,-1.15,1.85,-2.53,1.85c-2.17,0,-2.6,-2.1,-2.57,-3.92l5.03,0m-5.02,-0.66c0,-0.71,0.26,-2.9,2.08,-2.9c1.62,0,1.81,1.66,1.81,2.34c0,0.33,-0.1,0.56,-0.59,0.56l-3.3,0m11.54,4.56c-2.08,0,-2.57,-2.17,-2.57,-3.81c0,-2.6,1.03,-3.65,2.23,-3.65c0.8,0,1.31,0.57,1.66,1.52c0.1,0.27,0.21,0.45,0.54,0.45c0.35,0,1.03,-0.22,1.03,-0.89c0,-0.8,-1.15,-1.69,-3.04,-1.69c-3.18,0,-4.25,2.25,-4.25,4.58c0,2.92,1.43,4.4,4.05,4.4c1.22,0,2.87,-0.64,3.36,-2.51l-0.5,-0.24c-0.54,1.22,-1.24,1.85,-2.52,1.85m8.47,-8.08c-2.8,0,-4.18,1.66,-4.18,4.49c0,2.83,1.38,4.49,4.18,4.49c2.83,0,4.2,-1.66,4.2,-4.49c0,-2.83,-1.36,-4.49,-4.2,-4.49m-2.36,4.49c0,-2.41,0.76,-3.88,2.36,-3.88c1.62,0,2.37,1.46,2.37,3.88c0,2.41,-0.75,3.88,-2.37,3.88c-1.59,0,-2.36,-1.46,-2.36,-3.88m16.67,-1.71c0,-1.76,-0.96,-2.78,-2.57,-2.78c-1.29,0,-2.1,0.62,-3.18,1.32l-0.24,-1.32l-2.6,0.43l0,0.43l0.66,0.08c0.45,0.06,0.55,0.15,0.55,0.78l0,5.51c0,0.89,-0.05,0.92,-1.31,1.01l0,0.5l4.27,0l0,-0.5c-1.24,-0.08,-1.31,-0.12,-1.31,-1.01l0,-4.09c0,-0.43,0.03,-0.68,0.17,-0.96c0.36,-0.68,1.15,-1.26,2.08,-1.26c1.19,0,1.83,0.66,1.83,2.18l0,4.13c0,0.89,-0.05,0.92,-1.31,1.01l0,0.5l4.27,0l0,-0.5c-1.24,-0.08,-1.31,-0.12,-1.31,-1.01l0,-4.48m11.77,6l0,-0.5c-1.24,-0.08,-1.31,-0.12,-1.31,-1.02l0,-11.34l-0.12,-0.1l-2.74,0.43l0,0.43l0.66,0.07c0.45,0.05,0.56,0.14,0.56,0.8l0,2.87c-0.49,-0.26,-1.13,-0.41,-1.94,-0.41c-1.43,0,-2.5,0.45,-3.23,1.2c-0.75,0.78,-1.2,1.93,-1.2,3.45c0,2.58,1.34,4.31,3.65,4.31c0.94,0,1.76,-0.41,2.71,-1.18l0,0.87l0.13,0.12l2.83,0m-2.95,-2.98c0,0.38,-0.01,0.68,-0.12,0.97c-0.35,0.9,-1.11,1.25,-2.02,1.25c-1.6,0,-2.41,-1.57,-2.41,-3.57c0,-2.27,0.82,-3.84,2.6,-3.84c0.82,0,1.48,0.38,1.8,1.1c0.14,0.29,0.15,0.54,0.15,1.01l0,3.07m9.64,-3.15l0,-2.04c-0.57,-0.41,-1.46,-0.59,-2.25,-0.59c-1.89,0,-3.16,0.89,-3.18,2.55c0.01,1.45,1.19,2.1,2.64,2.53c0.78,0.24,1.89,0.64,1.89,1.83c0,0.89,-0.7,1.45,-1.62,1.45c-1.41,0,-2.2,-1.03,-2.55,-2.51l-0.5,0l0.17,2.29c0.63,0.55,1.69,0.83,2.73,0.83c2.08,0,3.27,-1.1,3.27,-2.58c0,-1.54,-0.94,-2.24,-2.74,-2.8c-0.71,-0.22,-1.87,-0.59,-1.87,-1.57c0.01,-0.91,0.7,-1.41,1.57,-1.41c1.24,0,1.83,0.96,1.96,2.02l0.5,0" fill="#000000" stroke="none" fill-opacity="1"/>
</g>
<path d="m50.2,466.07c1.66,0,2.13,2.59,2.13,5.44c0,2.85,-0.47,5.44,-2.13,5.44c-1.66,0,-2.13,-2.58,-2.13,-5.44c0,-2.85,0.47,-5.44,2.13,-5.44m0,-0.61c-2.88,0,-3.92,2.55,-3.92,6.05c0,3.5,1.03,6.05,3.92,6.05c2.88,0,3.92,-2.55,3.92,-6.05c0,-3.5,-1.03,-6.05,-3.92,-6.05" fill="#000000" stroke="none" fill-opacity="1"/>
<path d="m43.93,374.2l0,-0.5l-1.46,-0.12c-0.36,-0.03,-0.57,-0.17,-0.57,-0.85l0,-10.3l-0.08,-0.1l-3.6,0.61l0,0.43l1.62,0.19c0.29,0.03,0.42,0.17,0.42,0.68l0,8.48c0,0.33,-0.05,0.54,-0.15,0.66c-0.08,0.12,-0.22,0.17,-0.41,0.19l-1.47,0.12l0,0.5l5.73,0m6.26,-11.28c1.66,0,2.13,2.59,2.13,5.44c0,2.85,-0.47,5.44,-2.13,5.44c-1.66,0,-2.13,-2.58,-2.13,-5.44c0,-2.85,0.47,-5.44,2.13,-5.44m0,-0.61c-2.88,0,-3.92,2.55,-3.92,6.05c0,3.5,1.03,6.05,3.92,6.05c2.88,0,3.92,-2.55,3.92,-6.05c0,-3.5,-1.03,-6.05,-3.92,-6.05" fill="#000000" stroke="none" fill-opacity="1"/>
<path d="m44.77,268.75l-0.49,-0.08c-0.36,0.94,-0.71,1.06,-1.41,1.06l-4.47,0c0.27,-0.91,1.31,-2.15,2.94,-3.32c1.67,-1.22,2.97,-2.01,2.97,-3.97c0,-2.43,-1.61,-3.27,-3.44,-3.27c-2.39,0,-3.63,1.45,-3.63,2.36c0,0.59,0.66,0.87,0.96,0.87c0.31,0,0.43,-0.17,0.5,-0.47c0.28,-1.18,0.96,-2.15,2.04,-2.15c1.34,0,1.73,1.13,1.73,2.41c0,1.87,-0.94,2.92,-2.46,4.26c-2.15,1.87,-2.9,3.06,-3.23,4.42l0.17,0.17l7.24,0l0.59,-2.3m5.42,-8.97c1.66,0,2.13,2.59,2.13,5.44c0,2.85,-0.47,5.44,-2.13,5.44c-1.66,0,-2.13,-2.58,-2.13,-5.44c0,-2.85,0.47,-5.44,2.13,-5.44m0,-0.61c-2.88,0,-3.92,2.55,-3.92,6.05c0,3.5,1.03,6.05,3.92,6.05c2.88,0,3.92,-2.55,3.92,-6.05c0,-3.5,-1.03,-6.05,-3.92,-6.05" fill="#000000" stroke="none" fill-opacity="1"/>
<path d="m38.56,161.5c0,0.29,0.08,0.48,0.31,0.48c0.2,0,0.68,-0.17,1.52,-0.17c1.48,0,2.32,1.34,2.32,2.87c0,2.08,-1.03,2.81,-2.27,2.81c-1.15,0,-1.9,-0.87,-2.24,-1.85c-0.1,-0.33,-0.27,-0.48,-0.52,-0.48c-0.31,0,-0.92,0.33,-0.92,0.96c0,0.75,1.2,1.99,3.67,1.99c2.53,0,4.13,-1.27,4.13,-3.51c0,-2.34,-2.01,-3.04,-2.97,-3.13l0,-0.06c0.94,-0.15,2.46,-0.85,2.46,-2.59c0,-1.94,-1.52,-2.8,-3.39,-2.8c-2.3,0,-3.44,1.32,-3.44,2.08c0,0.54,0.61,0.83,0.85,0.83c0.22,0,0.36,-0.12,0.43,-0.35c0.38,-1.18,1.05,-1.95,2.03,-1.95c1.38,0,1.71,1.22,1.71,2.2c0,1.05,-0.36,2.36,-1.85,2.36c-0.84,0,-1.31,-0.17,-1.52,-0.17c-0.22,0,-0.31,0.17,-0.31,0.49m11.63,-4.88c1.66,0,2.13,2.59,2.13,5.44c0,2.85,-0.47,5.44,-2.13,5.44c-1.66,0,-2.13,-2.58,-2.13,-5.44c0,-2.85,0.47,-5.44,2.13,-5.44m0,-0.61c-2.88,0,-3.92,2.55,-3.92,6.05c0,3.5,1.03,6.05,3.92,6.05c2.88,0,3.92,-2.55,3.92,-6.05c0,-3.5,-1.03,-6.05,-3.92,-6.05" fill="#000000" stroke="none" fill-opacity="1"/>
<path d="m41.53,61.62l0,1.78c0,0.59,-0.19,0.7,-0.61,0.73l-1.12,0.1l0,0.5l4.62,0l0,-0.5l-0.78,-0.08c-0.4,-0.05,-0.52,-0.15,-0.52,-0.75l0,-1.78l1.8,0l0,-0.82l-1.8,0l0,-7.73l-1.27,0c-1.64,2.41,-3.6,5.46,-5.21,8.19l0.15,0.36l4.75,0m-3.65,-0.82c1.05,-1.9,2.27,-3.92,3.62,-6.03l0.03,0l0,6.03l-3.65,0m12.31,-7.33c1.66,0,2.13,2.59,2.13,5.44c0,2.85,-0.47,5.44,-2.13,5.44c-1.66,0,-2.13,-2.58,-2.13,-5.44c0,-2.85,0.47,-5.44,2.13,-5.44m0,-0.61c-2.88,0,-3.92,2.55,-3.92,6.05c0,3.5,1.03,6.05,3.92,6.05c2.88,0,3.92,-2.55,3.92,-6.05c0,-3.5,-1.03,-6.05,-3.92,-6.05" fill="#000000" stroke="none" fill-opacity="1"/>
</g>
<g fill="none" stroke-linecap="butt" stroke-width="0.62">
<path d="M60.23,471.25l464.17,0"/>
<path d="M60.23,471.25l0,-3.75M82.33,471.25l0,-3.75M104.44,471.25l0,-3.75M126.54,471.25l0,-3.75M148.65,471.25l0,-3.75M170.75,471.25l0,-3.75M192.85,471.25l0,-3.75M214.96,471.25l0,-3.75M237.06,471.25l0,-3.75M259.16,471.25l0,-3.75M281.27,471.25l0,-3.75M303.37,471.25l0,-3.75M325.47,471.25l0,-3.75M347.58,471.25l0,-3.75M369.68,471.25l0,-3.75M391.78,471.25l0,-3.75M413.89,471.25l0,-3.75M435.99,471.25l0,-3.75M458.09,471.25l0,-3.75M480.2,471.25l0,-3.75M502.3,471.25l0,-3.75M524.4,471.25l0,-3.75"/>
<path d="M60.23,471.25l0,-7.5M148.65,471.25l0,-7.5M237.06,471.25l0,-7.5M325.47,471.25l0,-7.5M413.89,471.25l0,-7.5M502.3,471.25l0,-7.5"/>
</g>
<g fill="none" stroke-width="0.1">
<path d="m251.58,517.87c0.77,0.71,2.22,1.05,3.44,1.05c3.09,0,4.32,-1.76,4.32,-3.55c0,-2.06,-1.4,-3.04,-3.44,-3.79l-0.55,-0.2c-1.17,-0.43,-2.15,-1.19,-2.15,-2.24c0,-1.27,0.77,-2.22,2.24,-2.22c1.5,0,2.34,0.85,2.62,2.62l0.54,0l0,-2.46c-0.59,-0.47,-1.78,-0.77,-2.97,-0.77c-2.13,0,-4.02,1.06,-4.02,3.37c0,1.83,1.47,2.8,3.3,3.44l0.31,0.12c0.76,0.29,2.43,1.1,2.43,2.65c0,1.5,-0.96,2.41,-2.51,2.41c-1.64,0,-2.73,-1.27,-3.16,-3.23l-0.55,0l0.17,2.8m9.06,-7.55l0,0.43l0.66,0.08c0.45,0.06,0.55,0.15,0.55,0.78l0,5.51c0,0.89,-0.05,0.92,-1.31,1.01l0,0.5l4.27,0l0,-0.5c-1.24,-0.08,-1.31,-0.12,-1.31,-1.01l0,-7.15l-0.12,-0.1l-2.74,0.43m2.03,-4.16c-0.63,0,-1.06,0.45,-1.06,1.08c0,0.61,0.43,1.05,1.06,1.05c0.64,0,1.05,-0.43,1.06,-1.05c0,-0.62,-0.42,-1.08,-1.06,-1.08m10.2,3.93l-6.72,0l0,2.59l0.54,0c0.22,-1.61,0.59,-1.97,2.48,-1.97l1.75,0c-1.8,2.57,-3.64,5.12,-5.51,7.7l0.13,0.26l7.43,0l0.17,-2.67l-0.54,0c-0.27,1.64,-0.87,2.06,-2.81,2.06l-2.25,0c1.76,-2.57,3.6,-5.14,5.46,-7.71l-0.14,-0.24m8.32,3.97c0.36,0,0.7,-0.08,0.7,-0.66c0,-1.03,-0.33,-3.51,-3.53,-3.51c-2.72,0,-4.02,1.94,-4.02,4.56c0,2.76,1.18,4.46,4.04,4.42c1.94,-0.01,2.94,-1.08,3.41,-2.46l-0.52,-0.27c-0.49,1.01,-1.15,1.85,-2.53,1.85c-2.17,0,-2.6,-2.1,-2.57,-3.92l5.03,0m-5.02,-0.66c0,-0.71,0.26,-2.9,2.08,-2.9c1.62,0,1.81,1.66,1.81,2.34c0,0.33,-0.1,0.56,-0.59,0.56l-3.3,0m10.88,-3.07l0,0.43l0.66,0.08c0.45,0.06,0.55,0.15,0.55,0.78l0,5.51c0,0.89,-0.05,0.92,-1.31,1.01l0,0.5l4.27,0l0,-0.5c-1.24,-0.08,-1.31,-0.12,-1.31,-1.01l0,-7.15l-0.12,-0.1l-2.74,0.43m2.03,-4.16c-0.63,0,-1.06,0.45,-1.06,1.08c0,0.61,0.43,1.05,1.06,1.05c0.64,0,1.05,-0.43,1.06,-1.05c0,-0.62,-0.42,-1.08,-1.06,-1.08m11.67,6.5c0,-1.76,-0.96,-2.78,-2.57,-2.78c-1.29,0,-2.1,0.62,-3.18,1.32l-0.24,-1.32l-2.6,0.43l0,0.43l0.66,0.08c0.45,0.06,0.55,0.15,0.55,0.78l0,5.51c0,0.89,-0.05,0.92,-1.31,1.01l0,0.5l4.27,0l0,-0.5c-1.24,-0.08,-1.31,-0.12,-1.31,-1.01l0,-4.09c0,-0.43,0.03,-0.68,0.17,-0.96c0.36,-0.68,1.15,-1.26,2.08,-1.26c1.19,0,1.83,0.66,1.83,2.18l0,4.13c0,0.89,-0.05,0.92,-1.31,1.01l0,0.5l4.27,0l0,-0.5c-1.24,-0.08,-1.31,-0.12,-1.31,-1.01l0,-4.48m10.25,6l0,-0.5c-1.13,-0.08,-1.55,-0.13,-1.66,-0.87c-0.08,-0.57,-0.12,-1.24,-0.12,-2.17l0,-6.94l0.03,0l4.51,10.29l0.47,0l4.56,-10.29l0.05,0l0,8.87c0,0.98,-0.03,1.01,-1.57,1.12l0,0.5l4.88,0l0,-0.5c-1.52,-0.1,-1.57,-0.13,-1.57,-1.12l0,-8.85c0,-0.97,0.05,-1.01,1.57,-1.12l0,-0.5l-3.51,0c-0.59,1.55,-1.31,3.09,-2.01,4.63l-2.1,4.68l-0.03,0l-2.06,-4.67c-0.68,-1.55,-1.41,-3.09,-2.04,-4.65l-3.55,0l0,0.5c1.53,0.1,1.57,0.14,1.57,1.12l0,6.92c0,0.92,-0.03,1.59,-0.12,2.17c-0.1,0.73,-0.52,0.8,-1.43,0.87l0,0.5l4.14,0m17.81,0c2.65,0,4.37,-0.96,4.37,-3.39c0,-2.06,-1.47,-2.97,-3.16,-3.2l0,-0.03c1.64,-0.33,2.6,-1.34,2.6,-2.69c0,-0.96,-0.38,-1.67,-1.08,-2.15c-0.68,-0.45,-1.73,-0.64,-3.09,-0.63l-5.05,0l0,0.5c1.54,0.1,1.57,0.14,1.57,1.12l0,8.85c0,0.98,-0.03,1.01,-1.57,1.12l0,0.5l5.42,0m-2.11,-6.21l1.25,0c2.17,0,3.36,1.08,3.36,2.94c0,2.1,-1.43,2.65,-2.94,2.65c-1.4,0,-1.67,-0.26,-1.67,-1.34l0,-4.25m0,-4.41c0,-0.75,0.05,-0.85,1.41,-0.87c1.25,-0.01,2.67,0.47,2.67,2.27c0,1.71,-1.1,2.39,-2.92,2.39l-1.17,0l0,-3.79" fill="#000000" stroke="none" fill-opacity="1"/>
<path d="m60.23,480.97c1.66,0,2.13,2.59,2.13,5.44c0,2.85,-0.47,5.44,-2.13,5.44c-1.66,0,-2.13,-2.58,-2.13,-5.44c0,-2.85,0.47,-5.44,2.13,-5.44m0,-0.61c-2.88,0,-3.92,2.55,-3.92,6.05c0,3.5,1.03,6.05,3.92,6.05c2.88,0,3.92,-2.55,3.92,-6.05c0,-3.5,-1.03,-6.05,-3.92,-6.05" fill="#000000" stroke="none" fill-opacity="1"/>
<path d="m143.22,489.95l-0.49,-0.08c-0.36,0.94,-0.71,1.06,-1.41,1.06l-4.47,0c0.27,-0.91,1.31,-2.15,2.94,-3.32c1.67,-1.22,2.97,-2.01,2.97,-3.97c0,-2.43,-1.61,-3.27,-3.44,-3.27c-2.39,0,-3.63,1.45,-3.63,2.36c0,0.59,0.66,0.87,0.96,0.87c0.31,0,0.43,-0.17,0.5,-0.47c0.28,-1.18,0.96,-2.15,2.04,-2.15c1.34,0,1.73,1.13,1.73,2.41c0,1.87,-0.94,2.92,-2.46,4.26c-2.15,1.87,-2.9,3.06,-3.23,4.42l0.17,0.17l7.24,0l0.59,-2.3m5.42,-8.97c1.66,0,2.13,2.59,2.13,5.44c0,2.85,-0.47,5.44,-2.13,5.44c-1.66,0,-2.13,-2.58,-2.13,-5.44c0,-2.85,0.47,-5.44,2.13,-5.44m0,-0.61c-2.88,0,-3.92,2.55,-3.92,6.05c0,3.5,1.03,6.05,3.92,6.05c2.88,0,3.92,-2.55,3.92,-6.05c0,-3.5,-1.03,-6.05,-3.92,-6.05m9.27,0.61c1.66,0,2.13,2.59,2.13,5.44c0,2.85,-0.47,5.44,-2.13,5.44c-1.66,0,-2.13,-2.58,-2.13,-5.44c0,-2.85,0.47,-5.44,2.13,-5.44m0,-0.61c-2.88,0,-3.92,2.55,-3.92,6.05c0,3.5,1.03,6.05,3.92,6.05c2.88,0,3.92,-2.55,3.92,-6.05c0,-3.5,-1.03,-6.05,-3.92,-6.05" fill="#000000" stroke="none" fill-opacity="1"/>
<path d="m228.4,489.12l0,1.78c0,0.59,-0.19,0.7,-0.61,0.73l-1.12,0.1l0,0.5l4.62,0l0,-0.5l-0.78,-0.08c-0.4,-0.05,-0.52,-0.15,-0.52,-0.75l0,-1.78l1.8,0l0,-0.82l-1.8,0l0,-7.73l-1.27,0c-1.64,2.41,-3.6,5.46,-5.21,8.19l0.15,0.36l4.75,0m-3.65,-0.82c1.05,-1.9,2.27,-3.92,3.62,-6.03l0.03,0l0,6.03l-3.65,0m12.31,-7.33c1.66,0,2.13,2.59,2.13,5.44c0,2.85,-0.47,5.44,-2.13,5.44c-1.66,0,-2.13,-2.58,-2.13,-5.44c0,-2.85,0.47,-5.44,2.13,-5.44m0,-0.61c-2.88,0,-3.92,2.55,-3.92,6.05c0,3.5,1.03,6.05,3.92,6.05c2.88,0,3.92,-2.55,3.92,-6.05c0,-3.5,-1.03,-6.05,-3.92,-6.05m9.27,0.61c1.66,0,2.13,2.59,2.13,5.44c0,2.85,-0.47,5.44,-2.13,5.44c-1.66,0,-2.13,-2.58,-2.13,-5.44c0,-2.85,0.47,-5.44,2.13,-5.44m0,-0.61c-2.88,0,-3.92,2.55,-3.92,6.05c0,3.5,1.03,6.05,3.92,6.05c2.88,0,3.92,-2.55,3.92,-6.05c0,-3.5,-1.03,-6.05,-3.92,-6.05" fill="#000000" stroke="none" fill-opacity="1"/>
<path d="m316.32,492.46c2.59,0,3.97,-1.57,3.97,-3.95c0,-2.36,-1.52,-3.67,-3.34,-3.63c-1.33,-0.03,-2.38,0.92,-2.85,1.5l-0.03,0c0.01,-3.85,1.11,-5.4,2.69,-5.4c0.8,0,1.36,0.68,1.62,1.67c0.05,0.2,0.19,0.36,0.45,0.36c0.38,0,0.92,-0.29,0.92,-0.78c0,-0.7,-0.85,-1.87,-2.95,-1.87c-1.38,0,-2.36,0.52,-3.09,1.36c-0.78,0.91,-1.38,2.59,-1.38,5.12c0,3.77,1.36,5.61,3.98,5.61m0.03,-6.7c1.1,0,2.18,0.99,2.18,3c0,1.83,-0.71,3.07,-2.18,3.07c-1.52,0,-2.25,-1.62,-2.25,-3.72c0,-1.06,0.78,-2.36,2.25,-2.36m9.11,-4.79c1.66,0,2.13,2.59,2.13,5.44c0,2.85,-0.47,5.44,-2.13,5.44c-1.66,0,-2.13,-2.58,-2.13,-5.44c0,-2.85,0.47,-5.44,2.13,-5.44m0,-0.61c-2.88,0,-3.92,2.55,-3.92,6.05c0,3.5,1.03,6.05,3.92,6.05c2.88,0,3.92,-2.55,3.92,-6.05c0,-3.5,-1.03,-6.05,-3.92,-6.05m9.27,0.61c1.66,0,2.13,2.59,2.13,5.44c0,2.85,-0.47,5.44,-2.13,5.44c-1.66,0,-2.13,-2.58,-2.13,-5.44c0,-2.85,0.47,-5.44,2.13,-5.44m0,-0.61c-2.88,0,-3.92,2.55,-3.92,6.05c0,3.5,1.03,6.05,3.92,6.05c2.88,0,3.92,-2.55,3.92,-6.05c0,-3.5,-1.03,-6.05,-3.92,-6.05" fill="#000000" stroke="none" fill-opacity="1"/>
<path d="m404.61,486.34c1.4,0,2.15,1.19,2.15,2.78c0,1.54,-0.66,2.72,-2.15,2.72c-1.45,0,-2.15,-1.18,-2.15,-2.72c0,-1.59,0.77,-2.78,2.15,-2.78m0,6.12c2.83,0,3.9,-1.62,3.9,-3.39c0,-1.78,-1.12,-2.8,-2.31,-3.08l0,-0.05c1.06,-0.27,1.92,-1.17,1.92,-2.6c0,-1.9,-1.48,-2.97,-3.51,-2.97c-1.99,0,-3.51,1.08,-3.51,2.97c0,1.43,0.87,2.32,1.92,2.6l0,0.05c-1.17,0.28,-2.31,1.29,-2.31,3.08c0,1.76,1.05,3.39,3.9,3.39m0,-6.75c-1.25,0,-1.82,-1.22,-1.82,-2.41c0,-1.34,0.62,-2.32,1.82,-2.32c1.19,0,1.78,0.97,1.82,2.32c0,1.19,-0.54,2.41,-1.82,2.41m9.27,-4.74c1.66,0,2.13,2.59,2.13,5.44c0,2.85,-0.47,5.44,-2.13,5.44c-1.66,0,-2.13,-2.58,-2.13,-5.44c0,-2.85,0.47,-5.44,2.13,-5.44m0,-0.61c-2.88,0,-3.92,2.55,-3.92,6.05c0,3.5,1.03,6.05,3.92,6.05c2.88,0,3.92,-2.55,3.92,-6.05c0,-3.5,-1.03,-6.05,-3.92,-6.05m9.27,0.61c1.66,0,2.13,2.59,2.13,5.44c0,2.85,-0.47,5.44,-2.13,5.44c-1.66,0,-2.13,-2.58,-2.13,-5.44c0,-2.85,0.47,-5.44,2.13,-5.44m0,-0.61c-2.88,0,-3.92,2.55,-3.92,6.05c0,3.5,1.03,6.05,3.92,6.05c2.88,0,3.92,-2.55,3.92,-6.05c0,-3.5,-1.03,-6.05,-3.92,-6.05" fill="#000000" stroke="none" fill-opacity="1"/>
<path d="m491.4,492.25l0,-0.5l-1.46,-0.12c-0.36,-0.03,-0.57,-0.17,-0.57,-0.85l0,-10.3l-0.08,-0.1l-3.6,0.61l0,0.43l1.62,0.19c0.29,0.03,0.42,0.17,0.42,0.68l0,8.48c0,0.33,-0.05,0.54,-0.15,0.66c-0.08,0.12,-0.22,0.17,-0.41,0.19l-1.47,0.12l0,0.5l5.73,0m6.26,-11.28c1.66,0,2.13,2.59,2.13,5.44c0,2.85,-0.47,5.44,-2.13,5.44c-1.66,0,-2.13,-2.58,-2.13,-5.44c0,-2.85,0.47,-5.44,2.13,-5.44m0,-0.61c-2.88,0,-3.92,2.55,-3.92,6.05c0,3.5,1.03,6.05,3.92,6.05c2.88,0,3.92,-2.55,3.92,-6.05c0,-3.5,-1.03,-6.05,-3.92,-6.05m9.27,0.61c1.66,0,2.13,2.59,2.13,5.44c0,2.85,-0.47,5.44,-2.13,5.44c-1.66,0,-2.13,-2.58,-2.13,-5.44c0,-2.85,0.47,-5.44,2.13,-5.44m0,-0.61c-2.88,0,-3.92,2.55,-3.92,6.05c0,3.5,1.03,6.05,3.92,6.05c2.88,0,3.92,-2.55,3.92,-6.05c0,-3.5,-1.03,-6.05,-3.92,-6.05m9.27,0.61c1.66,0,2.13,2.59,2.13,5.44c0,2.85,-0.47,5.44,-2.13,5.44c-1.66,0,-2.13,-2.58,-2.13,-5.44c0,-2.85,0.47,-5.44,2.13,-5.44m0,-0.61c-2.88,0,-3.92,2.55,-3.92,6.05c0,3.5,1.03,6.05,3.92,6.05c2.88,0,3.92,-2.55,3.92,-6.05c0,-3.5,-1.03,-6.05,-3.92,-6.05" fill="#000000" stroke="none" fill-opacity="1"/>
</g>
<g fill="none" stroke-linecap="butt" stroke-width="0.62">
<path d="M524.4,471.25l0,-464.17"/>
<path d="M524.4,471.25l-3.75,0M524.4,450.62l-3.75,0M524.4,430l-3.75,0M524.4,409.37l-3.75,0M524.4,388.74l-3.75,0M524.4,368.11l-3.75,0M524.4,347.48l-3.75,0M524.4,326.85l-3.75,0M524.4,306.22l-3.75,0M524.4,285.59l-3.75,0M524.4,264.96l-3.75,0M524.4,244.33l-3.75,0M524.4,223.7l-3.75,0M524.4,203.07l-3.75,0M524.4,182.44l-3.75,0M524.4,161.81l-3.75,0M524.4,141.18l-3.75,0M524.4,120.55l-3.75,0M524.4,99.92l-3.75,0M524.4,79.29l-3.75,0M524.4,58.66l-3.75,0M524.4,38.03l-3.75,0M524.4,17.4l-3.75,0"/>
<path d="M524.4,471.25l-7.5,0M524.4,368.11l-7.5,0M524.4,264.96l-7.5,0M524.4,161.81l-7.5,0M524.4,58.66l-7.5,0"/>
<path d="M60.23,7.08l464.17,0"/>
<path d="M60.23,7.08l0,3.75M82.33,7.08l0,3.75M104.44,7.08l0,3.75M126.54,7.08l0,3.75M148.65,7.08l0,3.75M170.75,7.08l0,3.75M192.85,7.08l0,3.75M214.96,7.08l0,3.75M237.06,7.08l0,3.75M259.16,7.08l0,3.75M281.27,7.08l0,3.75M303.37,7.08l0,3.75M325.47,7.08l0,3.75M347.58,7.08l0,3.75M369.68,7.08l0,3.75M391.78,7.08l0,3.75M413.89,7.08l0,3.75M435.99,7.08l0,3.75M458.09,7.08l0,3.75M480.2,7.08l0,3.75M502.3,7.08l0,3.75M524.4,7.08l0,3.75"/>
<path d="M60.23,7.08l0,7.5M148.65,7.08l0,7.5M237.06,7.08l0,7.5M325.47,7.08l0,7.5M413.89,7.08l0,7.5M502.3,7.08l0,7.5"/>
</g>
</g>
</g>
</svg>
