<?xml version="1.0" standalone="no"?>
<!DOCTYPE svg PUBLIC "-//W3C//DTD SVG 1.1//EN"
  "http://www.w3.org/Graphics/SVG/1.1/DTD/svg11.dtd">
<svg width="531.49px" height="531.49px" version="1.1"
    xmlns="http://www.w3.org/2000/svg"
    xmlns:xlink="http://www.w3.org/1999/xlink">
<desc>Veusz output document</desc>
<defs>
<clipPath id="c0">
<path d="m0,0l531.49,0l0,531.49l-531.49,0l0,-531.49"/>
</clipPath>
<clipPath id="c1">
<path d="m60.23,7.08l464.17,0l0,464.17l-464.17,0l0,-464.17"/>
</clipPath>
</defs>
<g stroke-linejoin="bevel" stroke-linecap="square" stroke="#000000" fill-rule="evenodd">
<g clip-path="url(#c0)">
<g fill="#ffffff" stroke-width="0.62">
<path d="m60.23,7.08l464.17,0l0,464.17l-464.17,0l0,-464.17"/>
</g>
</g>
<g clip-path="url(#c1)">
<g fill="none" stroke-width="0.62">
<polyline fill="none" points="60.23,373.21 98.91,431.82 137.59,16.49 176.27,436.52 214.96,419.16 253.64,443.76 292.32,46.15 331,471.25 369.68,373.21 408.36,431.82 485.72,16.49 524.4,436.52"/>
</g>
<g fill="#ff0000" stroke-linejoin="miter" stroke-width="0.62">
<g transform="translate(60.23,373.21)">
<path d="m3.75,0c0,2.07,-1.67,3.75,-3.75,3.75c-2.07,0,-3.75,-1.67,-3.75,-3.75c0,-2.07,1.67,-3.75,3.75,-3.75c2.07,0,3.75,1.67,3.75,3.75" id="p0"/>
</g>
<use xlink:href="#p0" x="98.91" y="431.82"/>
<use xlink:href="#p0" x="137.59" y="16.49"/>
<use xlink:href="#p0" x="176.27" y="436.52"/>
<use xlink:href="#p0" x="214.96" y="419.16"/>
<use xlink:href="#p0" x="253.64" y="443.76"/>
<use xlink:href="#p0" x="292.32" y="46.15"/>
<use xlink:href="#p0" x="331" y="471.25"/>
<use xlink:href="#p0" x="369.68" y="373.21"/>
<use xlink:href="#p0" x="408.36" y="431.82"/>
<use xlink:href="#p0" x="485.72" y="16.49"/>
<use xlink:href="#p0" x="524.4" y="436.52"/>
</g>
</g>
<g clip-path="url(#c0)">
<g fill="none" stroke-linecap="butt" stroke-width="0.62">
<path d="M60.23,471.25l0,-464.17"/>
<path d="M60.23,459.32l3.75,0M60.23,441.23l3.75,0M60.23,423.14l3.75,0M60.23,405.05l3.75,0M60.23,386.96l3.75,0M60.23,368.87l3.75,0M60.23,350.78l3.75,0M60.23,332.69l3.75,0M60.23,314.6l3.75,0M60.23,296.51l3.75,0M60.23,278.42l3.75,0M60.23,260.33l3.75,0M60.23,242.24l3.75,0M60.23,224.15l3.75,0M60.23,206.06l3.75,0M60.23,187.98l3.75,0M60.23,169.89l3.75,0M60.23,151.8l3.75,0M60.23,133.71l3.75,0M60.23,115.62l3.75,0M60.23,97.53l3.75,0M60.23,79.44l3.75,0M60.23,61.35l3.75,0M60.23,43.26l3.75,0M60.23,25.17l3.75,0M60.23,7.08l3.75,0"/>
<path d="M60.23,459.32l7.5,0M60.23,368.87l7.5,0M60.23,278.42l7.5,0M60.23,187.98l7.5,0M60.23,97.53l7.5,0M60.23,7.08l7.5,0"/>
</g>
<g fill="none" stroke-width="0.1">
<g transform="matrix(0 -1 1 0 15.6 329.61)">
<path d="m0.59,-12.11l0,0.5c1.53,0.1,1.57,0.14,1.57,1.12l0,6.92c0,0.92,-0.03,1.59,-0.12,2.17c-0.1,0.73,-0.52,0.8,-1.43,0.87l0,0.5l4.14,0l0,-0.5c-1.13,-0.08,-1.55,-0.13,-1.66,-0.87c-0.08,-0.57,-0.12,-1.24,-0.12,-2.17l0,-6.98l0.03,0c2.5,3.51,4.98,7.01,7.45,10.53l1.15,0l0,-8.55c0,-0.92,0.03,-1.59,0.12,-2.17c0.1,-0.73,0.52,-0.8,1.43,-0.87l0,-0.5l-4.14,0l0,0.5c1.13,0.08,1.55,0.14,1.66,0.87c0.08,0.57,0.12,1.24,0.12,2.17l0,6.14l-0.03,-0.03c-2.29,-3.22,-4.56,-6.44,-6.82,-9.66l-3.35,0m20.77,7.5c0.36,0,0.7,-0.08,0.7,-0.66c0,-1.03,-0.33,-3.51,-3.53,-3.51c-2.72,0,-4.02,1.94,-4.02,4.56c0,2.76,1.18,4.46,4.04,4.42c1.94,-0.01,2.94,-1.08,3.41,-2.46l-0.52,-0.27c-0.49,1.01,-1.15,1.85,-2.53,1.85c-2.17,0,-2.6,-2.1,-2.57,-3.92l5.03,0m-5.02,-0.66c0,-0.71,0.26,-2.9,2.08,-2.9c1.62,0,1.81,1.66,1.81,2.34c0,0.33,-0.1,0.56,-0.59,0.56l-3.3,0m14.01,0.66c0.36,0,0.7,-0.08,0.7,-0.66c0,-1.03,-0.33,-3.51,-3.53,-3.51c-2.72,0,-4.02,1.94,-4.02,4.56c0,2.76,1.18,4.46,4.04,4.42c1.94,-0.01,2.94,-1.08,3.41,-2.46l-0.52,-0.27c-0.49,1.01,-1.15,1.85,-2.53,1.85c-2.17,0,-2.6,-2.1,-2.57,-3.92l5.03,0m-5.02,-0.66c0,-0.71,0.26,-2.9,2.08,-2.9c1.62,0,1.81,1.66,1.81,2.34c0,0.33,-0.1,0.56,-0.59,0.56l-3.3,0m16.5,5.26l0,-0.5c-1.24,-0.08,-1.31,-0.12,-1.31,-1.02l0,-11.34l-0.12,-0.1l-2.74,0.43l0,0.43l0.66,0.07c0.45,0.05,0.56,0.14,0.56,0.8l0,2.87c-0.49,-0.26,-1.13,-0.41,-1.94,-0.41c-1.43,0,-2.5,0.45,-3.23,1.2c-0.75,0.78,-1.2,1.93,-1.2,3.45c0,2.58,1.34,4.31,3.65,4.31c0.94,0,1.76,-0.41,2.71,-1.18l0,0.87l0.13,0.12l2.83,0m-2.95,-2.98c0,0.38,-0.01,0.68,-0.12,0.97c-0.35,0.9,-1.11,1.25,-2.02,1.25c-1.6,0,-2.41,-1.57,-2.41,-3.57c0,-2.27,0.82,-3.84,2.6,-3.84c0.82,0,1.48,0.38,1.8,1.1c0.14,0.29,0.15,0.54,0.15,1.01l0,3.07m10.93,-1.61c0.36,0,0.7,-0.08,0.7,-0.66c0,-1.03,-0.33,-3.51,-3.53,-3.51c-2.72,0,-4.02,1.94,-4.02,4.56c0,2.76,1.18,4.46,4.04,4.42c1.94,-0.01,2.94,-1.08,3.41,-2.46l-0.52,-0.27c-0.49,1.01,-1.15,1.85,-2.53,1.85c-2.17,0,-2.6,-2.1,-2.57,-3.92l5.03,0m-5.02,-0.66c0,-0.71,0.26,-2.9,2.08,-2.9c1.62,0,1.81,1.66,1.81,2.34c0,0.33,-0.1,0.56,-0.59,0.56l-3.3,0m16.5,5.26l0,-0.5c-1.24,-0.08,-1.31,-0.12,-1.31,-1.02l0,-11.34l-0.12,-0.1l-2.74,0.43l0,0.43l0.66,0.07c0.45,0.05,0.56,0.14,0.56,0.8l0,2.87c-0.49,-0.26,-1.13,-0.41,-1.94,-0.41c-1.43,0,-2.5,0.45,-3.23,1.2c-0.75,0.78,-1.2,1.93,-1.2,3.45c0,2.58,1.34,4.31,3.65,4.31c0.94,0,1.76,-0.41,2.71,-1.18l0,0.87l0.13,0.12l2.83,0m-2.95,-2.98c0,0.38,-0.01,0.68,-0.12,0.97c-0.35,0.9,-1.11,1.25,-2.02,1.25c-1.6,0,-2.41,-1.57,-2.41,-3.57c0,-2.27,0.82,-3.84,2.6,-3.84c0.82,0,1.48,0.38,1.8,1.1c0.14,0.29,0.15,0.54,0.15,1.01l0,3.07m12.85,-4.88l0,-0.7l-2.25,0l0,-2.2l-0.5,0l-1.06,2.2l-1.32,0l0,0.7l1.26,0l0,6.09c0,1.78,1.32,1.99,1.94,1.99c0.89,0,1.73,-0.45,2.23,-0.76l-0.13,-0.36c-0.42,0.17,-0.8,0.22,-1.24,0.22c-0.59,0,-1.15,-0.42,-1.15,-1.75l0,-5.42l2.25,0m0.96,-0.47l0,0.43l0.66,0.08c0.45,0.06,0.55,0.15,0.55,0.78l0,5.51c0,0.89,-0.05,0.92,-1.31,1.01l0,0.5l4.27,0l0,-0.5c-1.24,-0.08,-1.31,-0.12,-1.31,-1.01l0,-7.15l-0.12,-0.1l-2.74,0.43m2.03,-4.16c-0.63,0,-1.06,0.45,-1.06,1.08c0,0.61,0.43,1.05,1.06,1.05c0.64,0,1.05,-0.43,1.06,-1.05c0,-0.62,-0.42,-1.08,-1.06,-1.08m3.06,4.16l0,0.43l0.66,0.08c0.45,0.06,0.55,0.15,0.55,0.78l0,5.51c0,0.89,-0.05,0.92,-1.31,1.01l0,0.5l4.27,0l0,-0.5c-1.24,-0.08,-1.31,-0.12,-1.31,-1.01l0,-4.09c0,-0.43,0.01,-0.68,0.14,-0.92c0.33,-0.7,1.1,-1.29,2.06,-1.29c1.5,0,1.68,1.1,1.68,2.18l0,4.13c0,0.89,-0.05,0.92,-1.31,1.01l0,0.5l4.27,0l0,-0.5c-1.24,-0.08,-1.31,-0.12,-1.31,-1.01l0,-4.09c0,-0.43,0.01,-0.68,0.12,-0.96c0.26,-0.7,1.01,-1.26,1.99,-1.26c1.1,-0.03,1.76,0.66,1.76,2.18l0,4.13c0,0.89,-0.05,0.92,-1.31,1.01l0,0.5l4.27,0l0,-0.5c-1.24,-0.08,-1.31,-0.12,-1.31,-1.01l0,-4.48c0,-1.76,-0.94,-2.78,-2.6,-2.78c-1.43,0,-2.46,0.96,-3.07,1.34c-0.42,-0.82,-1.08,-1.34,-2.31,-1.34c-1.34,0,-2.45,0.87,-3.06,1.32l-0.15,-1.32l-2.71,0.43m20.08,0l0,0.43l0.66,0.08c0.45,0.06,0.55,0.15,0.55,0.78l0,5.51c0,0.89,-0.05,0.92,-1.31,1.01l0,0.5l4.27,0l0,-0.5c-1.24,-0.08,-1.31,-0.12,-1.31,-1.01l0,-7.15l-0.12,-0.1l-2.74,0.43m2.03,-4.16c-0.63,0,-1.06,0.45,-1.06,1.08c0,0.61,0.43,1.05,1.06,1.05c0.64,0,1.05,-0.43,1.06,-1.05c0,-0.62,-0.42,-1.08,-1.06,-1.08m11.67,6.5c0,-1.76,-0.96,-2.78,-2.57,-2.78c-1.29,0,-2.1,0.62,-3.18,1.32l-0.24,-1.32l-2.6,0.43l0,0.43l0.66,0.08c0.45,0.06,0.55,0.15,0.55,0.78l0,5.51c0,0.89,-0.05,0.92,-1.31,1.01l0,0.5l4.27,0l0,-0.5c-1.24,-0.08,-1.31,-0.12,-1.31,-1.01l0,-4.09c0,-0.43,0.03,-0.68,0.17,-0.96c0.36,-0.68,1.15,-1.26,2.08,-1.26c1.19,0,1.83,0.66,1.83,2.18l0,4.13c0,0.89,-0.05,0.92,-1.31,1.01l0,0.5l4.27,0l0,-0.5c-1.24,-0.08,-1.31,-0.12,-1.31,-1.01l0,-4.48m11.93,-0.13l0,-2.04c-0.57,-0.41,-1.46,-0.59,-2.25,-0.59c-1.89,0,-3.16,0.89,-3.18,2.55c0.01,1.45,1.19,2.1,2.64,2.53c0.78,0.24,1.89,0.64,1.89,1.83c0,0.89,-0.7,1.45,-1.62,1.45c-1.41,0,-2.2,-1.03,-2.55,-2.51l-0.5,0l0.17,2.29c0.63,0.55,1.69,0.83,2.73,0.83c2.08,0,3.27,-1.1,3.27,-2.58c0,-1.54,-0.94,-2.24,-2.74,-2.8c-0.71,-0.22,-1.87,-0.59,-1.87,-1.57c0.01,-0.91,0.7,-1.41,1.57,-1.41c1.24,0,1.83,0.96,1.96,2.02l0.5,0m8.92,1.53c0.36,0,0.7,-0.08,0.7,-0.66c0,-1.03,-0.33,-3.51,-3.53,-3.51c-2.72,0,-4.02,1.94,-4.02,4.56c0,2.76,1.18,4.46,4.04,4.42c1.94,-0.01,2.94,-1.08,3.41,-2.46l-0.52,-0.27c-0.49,1.01,-1.15,1.85,-2.53,1.85c-2.17,0,-2.6,-2.1,-2.57,-3.92l5.03,0m-5.02,-0.66c0,-0.71,0.26,-2.9,2.08,-2.9c1.62,0,1.81,1.66,1.81,2.34c0,0.33,-0.1,0.56,-0.59,0.56l-3.3,0m11.54,4.56c-2.08,0,-2.57,-2.17,-2.57,-3.81c0,-2.6,1.03,-3.65,2.23,-3.65c0.8,0,1.31,0.57,1.66,1.52c0.1,0.27,0.21,0.45,0.54,0.45c0.35,0,1.03,-0.22,1.03,-0.89c0,-0.8,-1.15,-1.69,-3.04,-1.69c-3.18,0,-4.25,2.25,-4.25,4.58c0,2.92,1.43,4.4,4.05,4.4c1.22,0,2.87,-0.64,3.36,-2.51l-0.5,-0.24c-0.54,1.22,-1.24,1.85,-2.52,1.85m8.47,-8.08c-2.8,0,-4.18,1.66,-4.18,4.49c0,2.83,1.38,4.49,4.18,4.49c2.83,0,4.2,-1.66,4.2,-4.49c0,-2.83,-1.36,-4.49,-4.2,-4.49m-2.36,4.49c0,-2.41,0.76,-3.88,2.36,-3.88c1.62,0,2.37,1.46,2.37,3.88c0,2.41,-0.75,3.88,-2.37,3.88c-1.59,0,-2.36,-1.46,-2.36,-3.88m16.67,-1.71c0,-1.76,-0.96,-2.78,-2.57,-2.78c-1.29,0,-2.1,0.62,-3.18,1.32l-0.24,-1.32l-2.6,0.43l0,0.43l0.66,0.08c0.45,0.06,0.55,0.15,0.55,0.78l0,5.51c0,0.89,-0.05,0.92,-1.31,1.01l0,0.5l4.27,0l0,-0.5c-1.24,-0.08,-1.31,-0.12,-1.31,-1.01l0,-4.09c0,-0.43,0.03,-0.68,0.17,-0.96c0.36,-0.68,1.15,-1.26,2.08,-1.26c1.19,0,1.83,0.66,1.83,2.18l0,4.13c0,0.89,-0.05,0.92,-1.31,1.01l0,0.5l4.27,0l0,-0.5c-1.24,-0.08,-1.31,-0.12,-1.31,-1.01l0,-4.48m11.77,6l0,-0.5c-1.24,-0.08,-1.31,-0.12,-1.31,-1.02l0,-11.34l-0.12,-0.1l-2.74,0.43l0,0.43l0.66,0.07c0.45,0.05,0.56,0.14,0.56,0.8l0,2.87c-0.49,-0.26,-1.13,-0.41,-1.94,-0.41c-1.43,0,-2.5,0.45,-3.23,1.2c-0.75,0.78,-1.2,1.93,-1.2,3.45c0,2.58,1.34,4.31,3.65,4.31c0.94,0,1.76,-0.41,2.71,-1.18l0,0.87l0.13,0.12l2.83,0m-2.95,-2.98c0,0.38,-0.01,0.68,-0.12,0.97c-0.35,0.9,-1.11,1.25,-2.02,1.25c-1.6,0,-2.41,-1.57,-2.41,-3.57c0,-2.27,0.82,-3.84,2.6,-3.84c0.82,0,1.48,0.38,1.8,1.1c0.14,0.29,0.15,0.54,0.15,1.01l0,3.07m9.64,-3.15l0,-2.04c-0.57,-0.41,-1.46,-0.59,-2.25,-0.59c-1.89,0,-3.16,0.89,-3.18,2.55c0.01,1.45,1.19,2.1,2.64,2.53c0.78,0.24,1.89,0.64,1.89,1.83c0,0.89,-0.7,1.45,-1.62,1.45c-1.41,0,-2.2,-1.03,-2.55,-2.51l-0.5,0l0.17,2.29c0.63,0.55,1.69,0.83,2.73,0.83c2.08,0,3.27,-1.1,3.27,-2.58c0,-1.54,-0.94,-2.24,-2.74,-2.8c-0.71,-0.22,-1.87,-0.59,-1.87,-1.57c0.01,-0.91,0.7,-1.41,1.57,-1.41c1.24,0,1.83,0.96,1.96,2.02l0.5,0" fill="#000000" stroke="none" fill-opacity="1"/>
</g>
<path d="m26.51,456.27l0.3,-0.85l-0.06,-0.1l-4.17,0l-0.12,0.11l-0.25,4.18l0.3,0.15c0.52,-0.6,1.03,-0.88,1.71,-0.88c0.8,0,1.67,0.58,1.67,2.23c0,1.28,-0.52,2.26,-1.61,2.26c-0.87,0,-1.32,-0.63,-1.57,-1.35c-0.06,-0.18,-0.17,-0.3,-0.35,-0.3c-0.25,0,-0.66,0.25,-0.66,0.66c0,0.57,0.87,1.42,2.5,1.42c2.06,0,3,-1.25,3,-2.83c0,-1.75,-1.1,-2.65,-2.58,-2.65c-0.68,0,-1.42,0.3,-1.82,0.66l-0.02,-0.02l0.28,-2.33c0.03,-0.31,0.12,-0.36,0.36,-0.36l3.11,0m7.63,2l-0.52,-0.57l-2.25,2.3l-2.26,-2.3l-0.51,0.57l2.23,2.27l-2.23,2.3l0.51,0.55l2.26,-2.3l2.25,2.3l0.52,-0.55l-2.23,-2.3l2.23,-2.27m6.25,5.4l0,-0.36l-1.05,-0.08c-0.26,-0.02,-0.41,-0.12,-0.41,-0.61l0,-7.36l-0.06,-0.07l-2.57,0.43l0,0.31l1.16,0.13c0.21,0.02,0.3,0.12,0.3,0.48l0,6.06c0,0.23,-0.03,0.38,-0.11,0.47c-0.06,0.08,-0.16,0.12,-0.3,0.13l-1.05,0.08l0,0.36l4.1,0m4.47,-8.06c1.18,0,1.52,1.85,1.52,3.88c0,2.03,-0.33,3.88,-1.52,3.88c-1.18,0,-1.52,-1.85,-1.52,-3.88c0,-2.03,0.33,-3.88,1.52,-3.88m0,-0.43c-2.06,0,-2.8,1.82,-2.8,4.32c0,2.5,0.73,4.32,2.8,4.32c2.06,0,2.8,-1.82,2.8,-4.32c0,-2.5,-0.73,-4.32,-2.8,-4.32" fill="#000000" stroke="none" fill-opacity="1"/>
<path d="m48.5,456.25l3.62,0l0,-0.43l-3.62,0l0,0.43m6.2,0.31l0,0.76c0,0.25,-0.08,0.3,-0.26,0.31l-0.47,0.04l0,0.21l1.97,0l0,-0.21l-0.33,-0.03c-0.17,-0.02,-0.22,-0.06,-0.22,-0.32l0,-0.76l0.77,0l0,-0.35l-0.77,0l0,-3.31l-0.54,0c-0.7,1.03,-1.54,2.33,-2.23,3.5l0.06,0.15l2.04,0m-1.56,-0.35c0.45,-0.81,0.97,-1.67,1.55,-2.58l0.01,0l0,2.58l-1.56,0" fill="#000000" stroke="none" fill-opacity="1"/>
<path d="m12.14,364.87l-0.38,1.75l0.33,0l0.12,-0.26c0.16,-0.35,0.32,-0.53,0.88,-0.53l3.37,0c-0.12,0.45,-0.35,1.17,-1.36,2.62c-1.07,1.53,-1.78,2.93,-1.78,4.41c0,0.41,0.28,0.51,0.67,0.51c0.36,0,0.62,-0.11,0.61,-0.47c-0.06,-1.65,0.27,-2.97,0.93,-4.13c0.8,-1.4,1.46,-2.17,1.9,-3.75l-0.11,-0.13l-5.2,0m6.6,10.11c0.62,-0.58,1.53,-1.41,1.53,-2.4c0,-0.68,-0.41,-1.13,-0.85,-1.12c-0.38,0,-0.61,0.3,-0.61,0.62c0,0.45,0.41,0.67,0.41,1.21c0,0.51,-0.32,1.01,-0.72,1.45l0.23,0.23m7.76,-9.16l0.3,-0.85l-0.06,-0.1l-4.17,0l-0.12,0.11l-0.25,4.18l0.3,0.15c0.52,-0.6,1.03,-0.88,1.71,-0.88c0.8,0,1.67,0.58,1.67,2.23c0,1.28,-0.52,2.26,-1.61,2.26c-0.87,0,-1.32,-0.63,-1.57,-1.35c-0.06,-0.18,-0.17,-0.3,-0.35,-0.3c-0.25,0,-0.66,0.25,-0.66,0.66c0,0.57,0.87,1.42,2.5,1.42c2.06,0,3,-1.25,3,-2.83c0,-1.75,-1.1,-2.65,-2.58,-2.65c-0.68,0,-1.42,0.3,-1.82,0.66l-0.02,-0.02l0.28,-2.33c0.03,-0.31,0.12,-0.36,0.36,-0.36l3.11,0m7.63,2l-0.52,-0.57l-2.25,2.3l-2.26,-2.3l-0.51,0.57l2.23,2.27l-2.23,2.3l0.51,0.55l2.26,-2.3l2.25,2.3l0.52,-0.55l-2.23,-2.3l2.23,-2.27m6.25,5.4l0,-0.36l-1.05,-0.08c-0.26,-0.02,-0.41,-0.12,-0.41,-0.61l0,-7.36l-0.06,-0.07l-2.57,0.43l0,0.31l1.16,0.13c0.21,0.02,0.3,0.12,0.3,0.48l0,6.06c0,0.23,-0.03,0.38,-0.11,0.47c-0.06,0.08,-0.16,0.12,-0.3,0.13l-1.05,0.08l0,0.36l4.1,0m4.47,-8.06c1.18,0,1.52,1.85,1.52,3.88c0,2.03,-0.33,3.88,-1.52,3.88c-1.18,0,-1.52,-1.85,-1.52,-3.88c0,-2.03,0.33,-3.88,1.52,-3.88m0,-0.43c-2.06,0,-2.8,1.82,-2.8,4.32c0,2.5,0.73,4.32,2.8,4.32c2.06,0,2.8,-1.82,2.8,-4.32c0,-2.5,-0.73,-4.32,-2.8,-4.32" fill="#000000" stroke="none" fill-opacity="1"/>
<path d="m48.5,365.8l3.62,0l0,-0.43l-3.62,0l0,0.43m6.2,0.31l0,0.76c0,0.25,-0.08,0.3,-0.26,0.31l-0.47,0.04l0,0.21l1.97,0l0,-0.21l-0.33,-0.03c-0.17,-0.02,-0.22,-0.06,-0.22,-0.32l0,-0.76l0.77,0l0,-0.35l-0.77,0l0,-3.31l-0.54,0c-0.7,1.03,-1.54,2.33,-2.23,3.5l0.06,0.15l2.04,0m-1.56,-0.35c0.45,-0.81,0.97,-1.67,1.55,-2.58l0.01,0l0,2.58l-1.56,0" fill="#000000" stroke="none" fill-opacity="1"/>
<path d="m40.39,282.77l0,-0.36l-1.05,-0.08c-0.26,-0.02,-0.41,-0.12,-0.41,-0.61l0,-7.36l-0.06,-0.07l-2.57,0.43l0,0.31l1.16,0.13c0.21,0.02,0.3,0.12,0.3,0.48l0,6.06c0,0.23,-0.03,0.38,-0.11,0.47c-0.06,0.08,-0.16,0.12,-0.3,0.13l-1.05,0.08l0,0.36l4.1,0m4.47,-8.06c1.18,0,1.52,1.85,1.52,3.88c0,2.03,-0.33,3.88,-1.52,3.88c-1.18,0,-1.52,-1.85,-1.52,-3.88c0,-2.03,0.33,-3.88,1.52,-3.88m0,-0.43c-2.06,0,-2.8,1.82,-2.8,4.32c0,2.5,0.73,4.32,2.8,4.32c2.06,0,2.8,-1.82,2.8,-4.32c0,-2.5,-0.73,-4.32,-2.8,-4.32" fill="#000000" stroke="none" fill-opacity="1"/>
<path d="m48.5,275.35l3.62,0l0,-0.43l-3.62,0l0,0.43m4.92,-1.08c0,0.12,0.03,0.21,0.13,0.21c0.09,0,0.29,-0.07,0.65,-0.07c0.63,0,0.99,0.57,0.99,1.22c0,0.89,-0.44,1.2,-0.97,1.2c-0.49,0,-0.81,-0.37,-0.95,-0.79c-0.04,-0.14,-0.12,-0.21,-0.22,-0.21c-0.13,0,-0.39,0.14,-0.39,0.41c0,0.32,0.51,0.85,1.57,0.85c1.08,0,1.76,-0.54,1.76,-1.5c0,-1,-0.86,-1.3,-1.27,-1.34l0,-0.03c0.4,-0.06,1.05,-0.36,1.05,-1.1c0,-0.83,-0.65,-1.2,-1.45,-1.2c-0.99,0,-1.47,0.57,-1.47,0.89c0,0.23,0.26,0.36,0.36,0.36c0.09,0,0.15,-0.05,0.18,-0.15c0.16,-0.51,0.45,-0.84,0.86,-0.84c0.59,0,0.73,0.52,0.73,0.94c0,0.45,-0.15,1.01,-0.79,1.01c-0.35,0,-0.56,-0.07,-0.65,-0.07c-0.09,0,-0.13,0.07,-0.13,0.2" fill="#000000" stroke="none" fill-opacity="1"/>
<path d="m16.71,101.88l0,-0.36l-1.05,-0.08c-0.26,-0.02,-0.41,-0.12,-0.41,-0.61l0,-7.36l-0.06,-0.07l-2.57,0.43l0,0.31l1.16,0.13c0.21,0.02,0.3,0.12,0.3,0.48l0,6.06c0,0.23,-0.03,0.38,-0.11,0.47c-0.06,0.08,-0.16,0.12,-0.3,0.13l-1.05,0.08l0,0.36l4.1,0m2.03,1.76c0.62,-0.58,1.53,-1.41,1.53,-2.4c0,-0.68,-0.41,-1.13,-0.85,-1.12c-0.38,0,-0.61,0.3,-0.61,0.62c0,0.45,0.41,0.67,0.41,1.21c0,0.51,-0.32,1.01,-0.72,1.45l0.23,0.23m7.76,-9.16l0.3,-0.85l-0.06,-0.1l-4.17,0l-0.12,0.11l-0.25,4.18l0.3,0.15c0.52,-0.6,1.03,-0.88,1.71,-0.88c0.8,0,1.67,0.58,1.67,2.23c0,1.28,-0.52,2.26,-1.61,2.26c-0.87,0,-1.32,-0.63,-1.57,-1.35c-0.06,-0.18,-0.17,-0.3,-0.35,-0.3c-0.25,0,-0.66,0.25,-0.66,0.66c0,0.57,0.87,1.42,2.5,1.42c2.06,0,3,-1.25,3,-2.83c0,-1.75,-1.1,-2.65,-2.58,-2.65c-0.68,0,-1.42,0.3,-1.82,0.66l-0.02,-0.02l0.28,-2.33c0.03,-0.31,0.12,-0.36,0.36,-0.36l3.11,0m7.63,2l-0.52,-0.57l-2.25,2.3l-2.26,-2.3l-0.51,0.57l2.23,2.27l-2.23,2.3l0.51,0.55l2.26,-2.3l2.25,2.3l0.52,-0.55l-2.23,-2.3l2.23,-2.27m6.25,5.4l0,-0.36l-1.05,-0.08c-0.26,-0.02,-0.41,-0.12,-0.41,-0.61l0,-7.36l-0.06,-0.07l-2.57,0.43l0,0.31l1.16,0.13c0.21,0.02,0.3,0.12,0.3,0.48l0,6.06c0,0.23,-0.03,0.38,-0.11,0.47c-0.06,0.08,-0.16,0.12,-0.3,0.13l-1.05,0.08l0,0.36l4.1,0m4.47,-8.06c1.18,0,1.52,1.85,1.52,3.88c0,2.03,-0.33,3.88,-1.52,3.88c-1.18,0,-1.52,-1.85,-1.52,-3.88c0,-2.03,0.33,-3.88,1.52,-3.88m0,-0.43c-2.06,0,-2.8,1.82,-2.8,4.32c0,2.5,0.73,4.32,2.8,4.32c2.06,0,2.8,-1.82,2.8,-4.32c0,-2.5,-0.73,-4.32,-2.8,-4.32" fill="#000000" stroke="none" fill-opacity="1"/>
<path d="m48.5,94.46l3.62,0l0,-0.43l-3.62,0l0,0.43m4.92,-1.08c0,0.12,0.03,0.21,0.13,0.21c0.09,0,0.29,-0.07,0.65,-0.07c0.63,0,0.99,0.57,0.99,1.22c0,0.89,-0.44,1.2,-0.97,1.2c-0.49,0,-0.81,-0.37,-0.95,-0.79c-0.04,-0.14,-0.12,-0.21,-0.22,-0.21c-0.13,0,-0.39,0.14,-0.39,0.41c0,0.32,0.51,0.85,1.57,0.85c1.08,0,1.76,-0.54,1.76,-1.5c0,-1,-0.86,-1.3,-1.27,-1.34l0,-0.03c0.4,-0.06,1.05,-0.36,1.05,-1.1c0,-0.83,-0.65,-1.2,-1.45,-1.2c-0.99,0,-1.47,0.57,-1.47,0.89c0,0.23,0.26,0.36,0.36,0.36c0.09,0,0.15,-0.05,0.18,-0.15c0.16,-0.51,0.45,-0.84,0.86,-0.84c0.59,0,0.73,0.52,0.73,0.94c0,0.45,-0.15,1.01,-0.79,1.01c-0.35,0,-0.56,-0.07,-0.65,-0.07c-0.09,0,-0.13,0.07,-0.13,0.2" fill="#000000" stroke="none" fill-opacity="1"/>
<path d="m10.08,11.57l0,-0.36l-1.05,-0.08c-0.26,-0.02,-0.41,-0.12,-0.41,-0.61l0,-7.36l-0.06,-0.07l-2.57,0.43l0,0.31l1.16,0.13c0.21,0.02,0.3,0.12,0.3,0.48l0,6.06c0,0.23,-0.03,0.38,-0.11,0.47c-0.06,0.08,-0.16,0.12,-0.3,0.13l-1.05,0.08l0,0.36l4.1,0m2.03,1.76c0.62,-0.58,1.53,-1.41,1.53,-2.4c0,-0.68,-0.41,-1.13,-0.85,-1.12c-0.38,0,-0.61,0.3,-0.61,0.62c0,0.45,0.41,0.67,0.41,1.21c0,0.51,-0.32,1.01,-0.72,1.45l0.23,0.23m3.33,-10.11l-0.38,1.75l0.33,0l0.12,-0.26c0.16,-0.35,0.32,-0.53,0.88,-0.53l3.37,0c-0.12,0.45,-0.35,1.17,-1.36,2.62c-1.07,1.53,-1.78,2.93,-1.78,4.41c0,0.41,0.28,0.51,0.67,0.51c0.36,0,0.62,-0.11,0.61,-0.47c-0.06,-1.65,0.27,-2.97,0.93,-4.13c0.8,-1.4,1.46,-2.17,1.9,-3.75l-0.11,-0.13l-5.2,0m11.05,0.95l0.3,-0.85l-0.06,-0.1l-4.17,0l-0.12,0.11l-0.25,4.18l0.3,0.15c0.52,-0.6,1.03,-0.88,1.71,-0.88c0.8,0,1.67,0.58,1.67,2.23c0,1.28,-0.52,2.26,-1.61,2.26c-0.87,0,-1.32,-0.63,-1.57,-1.35c-0.06,-0.18,-0.17,-0.3,-0.35,-0.3c-0.25,0,-0.66,0.25,-0.66,0.66c0,0.57,0.87,1.42,2.5,1.42c2.06,0,3,-1.25,3,-2.83c0,-1.75,-1.1,-2.65,-2.58,-2.65c-0.68,0,-1.42,0.3,-1.82,0.66l-0.02,-0.02l0.28,-2.33c0.03,-0.31,0.12,-0.36,0.36,-0.36l3.11,0m7.63,2l-0.52,-0.57l-2.25,2.3l-2.26,-2.3l-0.51,0.57l2.23,2.27l-2.23,2.3l0.51,0.55l2.26,-2.3l2.25,2.3l0.52,-0.55l-2.23,-2.3l2.23,-2.27m6.25,5.4l0,-0.36l-1.05,-0.08c-0.26,-0.02,-0.41,-0.12,-0.41,-0.61l0,-7.36l-0.06,-0.07l-2.57,0.43l0,0.31l1.16,0.13c0.21,0.02,0.3,0.12,0.3,0.48l0,6.06c0,0.23,-0.03,0.38,-0.11,0.47c-0.06,0.08,-0.16,0.12,-0.3,0.13l-1.05,0.08l0,0.36l4.1,0m4.47,-8.06c1.18,0,1.52,1.85,1.52,3.88c0,2.03,-0.33,3.88,-1.52,3.88c-1.18,0,-1.52,-1.85,-1.52,-3.88c0,-2.03,0.33,-3.88,1.52,-3.88m0,-0.43c-2.06,0,-2.8,1.82,-2.8,4.32c0,2.5,0.73,4.32,2.8,4.32c2.06,0,2.8,-1.82,2.8,-4.32c0,-2.5,-0.73,-4.32,-2.8,-4.32" fill="#000000" stroke="none" fill-opacity="1"/>
<path d="m48.5,4.16l3.62,0l0,-0.43l-3.62,0l0,0.43m4.92,-1.08c0,0.12,0.03,0.21,0.13,0.21c0.09,0,0.29,-0.07,0.65,-0.07c0.63,0,0.99,0.57,0.99,1.22c0,0.89,-0.44,1.2,-0.97,1.2c-0.49,0,-0.81,-0.37,-0.95,-0.79c-0.04,-0.14,-0.12,-0.21,-0.22,-0.21c-0.13,0,-0.39,0.14,-0.39,0.41c0,0.32,0.51,0.85,1.57,0.85c1.08,0,1.76,-0.54,1.76,-1.5c0,-1,-0.86,-1.3,-1.27,-1.34l0,-0.03c0.4,-0.06,1.05,-0.36,1.05,-1.1c0,-0.83,-0.65,-1.2,-1.45,-1.2c-0.99,0,-1.47,0.57,-1.47,0.89c0,0.23,0.26,0.36,0.36,0.36c0.09,0,0.15,-0.05,0.18,-0.15c0.16,-0.51,0.45,-0.84,0.86,-0.84c0.59,0,0.73,0.52,0.73,0.94c0,0.45,-0.15,1.01,-0.79,1.01c-0.35,0,-0.56,-0.07,-0.65,-0.07c-0.09,0,-0.13,0.07,-0.13,0.2" fill="#000000" stroke="none" fill-opacity="1"/>
</g>
<g fill="none" stroke-linecap="butt" stroke-width="0.62">
<path d="M60.23,471.25l464.17,0"/>
<path d="M60.23,471.25l0,-3.75M79.57,471.25l0,-3.75M98.91,471.25l0,-3.75M118.25,471.25l0,-3.75M137.59,471.25l0,-3.75M156.93,471.25l0,-3.75M176.27,471.25l0,-3.75M195.62,471.25l0,-3.75M214.96,471.25l0,-3.75M234.3,471.25l0,-3.75M253.64,471.25l0,-3.75M272.98,471.25l0,-3.75M292.32,471.25l0,-3.75M311.66,471.25l0,-3.75M331,471.25l0,-3.75M350.34,471.25l0,-3.75M369.68,471.25l0,-3.75M389.02,471.25l0,-3.75M408.36,471.25l0,-3.75M427.7,471.25l0,-3.75M447.04,471.25l0,-3.75M466.38,471.25l0,-3.75M485.72,471.25l0,-3.75M505.06,471.25l0,-3.75M524.4,471.25l0,-3.75"/>
<path d="M60.23,471.25l0,-7.5M137.59,471.25l0,-7.5M214.96,471.25l0,-7.5M292.32,471.25l0,-7.5M369.68,471.25l0,-7.5M447.04,471.25l0,-7.5M524.4,471.25l0,-7.5"/>
</g>
<g fill="none" stroke-width="0.1">
<path d="m60.23,480.97c1.66,0,2.13,2.59,2.13,5.44c0,2.85,-0.47,5.44,-2.13,5.44c-1.66,0,-2.13,-2.58,-2.13,-5.44c0,-2.85,0.47,-5.44,2.13,-5.44m0,-0.61c-2.88,0,-3.92,2.55,-3.92,6.05c0,3.5,1.03,6.05,3.92,6.05c2.88,0,3.92,-2.55,3.92,-6.05c0,-3.5,-1.03,-6.05,-3.92,-6.05" fill="#000000" stroke="none" fill-opacity="1"/>
<path d="m141.44,489.95l-0.49,-0.08c-0.36,0.94,-0.71,1.06,-1.41,1.06l-4.47,0c0.27,-0.91,1.31,-2.15,2.94,-3.32c1.67,-1.22,2.97,-2.01,2.97,-3.97c0,-2.43,-1.61,-3.27,-3.44,-3.27c-2.39,0,-3.63,1.45,-3.63,2.36c0,0.59,0.66,0.87,0.96,0.87c0.31,0,0.43,-0.17,0.5,-0.47c0.28,-1.18,0.96,-2.15,2.04,-2.15c1.34,0,1.73,1.13,1.73,2.41c0,1.87,-0.94,2.92,-2.46,4.26c-2.15,1.87,-2.9,3.06,-3.23,4.42l0.17,0.17l7.24,0l0.59,-2.3" fill="#000000" stroke="none" fill-opacity="1"/>
<path d="m215.57,489.12l0,1.78c0,0.59,-0.19,0.7,-0.61,0.73l-1.12,0.1l0,0.5l4.62,0l0,-0.5l-0.78,-0.08c-0.4,-0.05,-0.52,-0.15,-0.52,-0.75l0,-1.78l1.8,0l0,-0.82l-1.8,0l0,-7.73l-1.27,0c-1.64,2.41,-3.6,5.46,-5.21,8.19l0.15,0.36l4.75,0m-3.65,-0.82c1.05,-1.9,2.27,-3.92,3.62,-6.03l0.03,0l0,6.03l-3.65,0" fill="#000000" stroke="none" fill-opacity="1"/>
<path d="m292.44,492.46c2.59,0,3.97,-1.57,3.97,-3.95c0,-2.36,-1.52,-3.67,-3.34,-3.63c-1.33,-0.03,-2.38,0.92,-2.85,1.5l-0.03,0c0.01,-3.85,1.11,-5.4,2.69,-5.4c0.8,0,1.36,0.68,1.62,1.67c0.05,0.2,0.19,0.36,0.45,0.36c0.38,0,0.92,-0.29,0.92,-0.78c0,-0.7,-0.85,-1.87,-2.95,-1.87c-1.38,0,-2.36,0.52,-3.09,1.36c-0.78,0.91,-1.38,2.59,-1.38,5.12c0,3.77,1.36,5.61,3.98,5.61m0.03,-6.7c1.1,0,2.18,0.99,2.18,3c0,1.83,-0.71,3.07,-2.18,3.07c-1.52,0,-2.25,-1.62,-2.25,-3.72c0,-1.06,0.78,-2.36,2.25,-2.36" fill="#000000" stroke="none" fill-opacity="1"/>
<path d="m369.68,486.34c1.4,0,2.15,1.19,2.15,2.78c0,1.54,-0.66,2.72,-2.15,2.72c-1.45,0,-2.15,-1.18,-2.15,-2.72c0,-1.59,0.77,-2.78,2.15,-2.78m0,6.12c2.83,0,3.9,-1.62,3.9,-3.39c0,-1.78,-1.12,-2.8,-2.31,-3.08l0,-0.05c1.06,-0.27,1.92,-1.17,1.92,-2.6c0,-1.9,-1.48,-2.97,-3.51,-2.97c-1.99,0,-3.51,1.08,-3.51,2.97c0,1.43,0.87,2.32,1.92,2.6l0,0.05c-1.17,0.28,-2.31,1.29,-2.31,3.08c0,1.76,1.05,3.39,3.9,3.39m0,-6.75c-1.25,0,-1.82,-1.22,-1.82,-2.41c0,-1.34,0.62,-2.32,1.82,-2.32c1.19,0,1.78,0.97,1.82,2.32c0,1.19,-0.54,2.41,-1.82,2.41" fill="#000000" stroke="none" fill-opacity="1"/>
<path d="m445.42,492.25l0,-0.5l-1.46,-0.12c-0.36,-0.03,-0.57,-0.17,-0.57,-0.85l0,-10.3l-0.08,-0.1l-3.6,0.61l0,0.43l1.62,0.19c0.29,0.03,0.42,0.17,0.42,0.68l0,8.48c0,0.33,-0.05,0.54,-0.15,0.66c-0.08,0.12,-0.22,0.17,-0.41,0.19l-1.47,0.12l0,0.5l5.73,0m6.26,-11.28c1.66,0,2.13,2.59,2.13,5.44c0,2.85,-0.47,5.44,-2.13,5.44c-1.66,0,-2.13,-2.58,-2.13,-5.44c0,-2.85,0.47,-5.44,2.13,-5.44m0,-0.61c-2.88,0,-3.92,2.55,-3.92,6.05c0,3.5,1.03,6.05,3.92,6.05c2.88,0,3.92,-2.55,3.92,-6.05c0,-3.5,-1.03,-6.05,-3.92,-6.05" fill="#000000" stroke="none" fill-opacity="1"/>
<path d="m520.59,492.25l0,-0.5l-1.46,-0.12c-0.36,-0.03,-0.57,-0.17,-0.57,-0.85l0,-10.3l-0.08,-0.1l-3.6,0.61l0,0.43l1.62,0.19c0.29,0.03,0.42,0.17,0.42,0.68l0,8.48c0,0.33,-0.05,0.54,-0.15,0.66c-0.08,0.12,-0.22,0.17,-0.41,0.19l-1.47,0.12l0,0.5l5.73,0m10.11,-2.3l-0.49,-0.08c-0.36,0.94,-0.71,1.06,-1.41,1.06l-4.47,0c0.27,-0.91,1.31,-2.15,2.94,-3.32c1.67,-1.22,2.97,-2.01,2.97,-3.97c0,-2.43,-1.61,-3.27,-3.44,-3.27c-2.39,0,-3.63,1.45,-3.63,2.36c0,0.59,0.66,0.87,0.96,0.87c0.31,0,0.43,-0.17,0.5,-0.47c0.28,-1.18,0.96,-2.15,2.04,-2.15c1.34,0,1.73,1.13,1.73,2.41c0,1.87,-0.94,2.92,-2.46,4.26c-2.15,1.87,-2.9,3.06,-3.23,4.42l0.17,0.17l7.24,0l0.59,-2.3" fill="#000000" stroke="none" fill-opacity="1"/>
</g>
<g fill="none" stroke-linecap="butt" stroke-width="0.62">
<path d="M524.4,471.25l0,-464.17"/>
<path d="M524.4,459.32l-3.75,0M524.4,441.23l-3.75,0M524.4,423.14l-3.75,0M524.4,405.05l-3.75,0M524.4,386.96l-3.75,0M524.4,368.87l-3.75,0M524.4,350.78l-3.75,0M524.4,332.69l-3.75,0M524.4,314.6l-3.75,0M524.4,296.51l-3.75,0M524.4,278.42l-3.75,0M524.4,260.33l-3.75,0M524.4,242.24l-3.75,0M524.4,224.15l-3.75,0M524.4,206.06l-3.75,0M524.4,187.98l-3.75,0M524.4,169.89l-3.75,0M524.4,151.8l-3.75,0M524.4,133.71l-3.75,0M524.4,115.62l-3.75,0M524.4,97.53l-3.75,0M524.4,79.44l-3.75,0M524.4,61.35l-3.75,0M524.4,43.26l-3.75,0M524.4,25.17l-3.75,0M524.4,7.08l-3.75,0"/>
<path d="M524.4,459.32l-7.5,0M524.4,368.87l-7.5,0M524.4,278.42l-7.5,0M524.4,187.98l-7.5,0M524.4,97.53l-7.5,0M524.4,7.08l-7.5,0"/>
<path d="M60.23,7.08l464.17,0"/>
<path d="M60.23,7.08l0,3.75M79.57,7.08l0,3.75M98.91,7.08l0,3.75M118.25,7.08l0,3.75M137.59,7.08l0,3.75M156.93,7.08l0,3.75M176.27,7.08l0,3.75M195.62,7.08l0,3.75M214.96,7.08l0,3.75M234.3,7.08l0,3.75M253.64,7.08l0,3.75M272.98,7.08l0,3.75M292.32,7.08l0,3.75M311.66,7.08l0,3.75M331,7.08l0,3.75M350.34,7.08l0,3.75M369.68,7.08l0,3.75M389.02,7.08l0,3.75M408.36,7.08l0,3.75M427.7,7.08l0,3.75M447.04,7.08l0,3.75M466.38,7.08l0,3.75M485.72,7.08l0,3.75M505.06,7.08l0,3.75M524.4,7.08l0,3.75"/>
<path d="M60.23,7.08l0,7.5M137.59,7.08l0,7.5M214.96,7.08l0,7.5M292.32,7.08l0,7.5M369.68,7.08l0,7.5M447.04,7.08l0,7.5M524.4,7.08l0,7.5"/>
</g>
</g>
</g>
</svg>
